<?xml version="1.0" encoding="UTF-8"?>
<svg id="Capa_2" data-name="Capa 2" xmlns="http://www.w3.org/2000/svg" viewBox="0 0 145.46 128.89">
  <defs>
    <style>
      .cls-1 {
        fill: #216966;
      }
    </style>
  </defs>
  <g id="Capa_1-2" data-name="Capa 1">
    <g>
      <path class="cls-1" d="m145.46,64.98c-3.78,3.92-7.28,4.55-12.21,1.94-1.82-.97-3.58-2.16-5.11-3.53-17.77-15.86-35.49-31.78-53.22-47.68-.31-.28-.65-.53-1.05-.86-3.1,2.62-6.17,5.21-9.24,7.8-16.59,14.04-33.17,28.1-49.81,42.07-1.78,1.49-3.88,2.77-6.03,3.6-3.47,1.34-6.63.02-8.78-3.27C24.59,43.39,49.2,21.72,73.86,0c.39.32.73.57,1.03.85,23.34,21.14,46.68,42.29,70.02,63.43.17.16.37.28.56.42v.28Z"/>
      <path class="cls-1" d="m84.33,128.63c0-.58,0-1.09,0-1.59.01-9.19.02-18.38.03-27.57,0-3.72-1.38-5.44-5.08-5.56-5.2-.18-10.42-.14-15.62-.02-2.78.07-4.05,1.58-4.13,4.38-.05,1.75-.01,3.5-.02,5.26-.02,7.82-.05,15.63-.07,23.45,0,.56,0,1.12,0,1.88-.64,0-1.15,0-1.65,0-11.32.01-22.64.03-33.96.04-3.16,0-4.07-.89-4.07-4.05,0-18.09-.01-36.19.03-54.28,0-.65.31-1.52.79-1.92,17.39-14.64,34.82-29.23,52.24-43.83.18-.15.37-.29.65-.5,1.95,1.73,3.89,3.45,5.83,5.17,14.62,13,29.24,25.99,43.82,39.03.51.46.91,1.34.91,2.02.05,17.81.04,35.62.04,53.43,0,3.47-1.26,4.75-4.68,4.75-11.23,0-22.45,0-33.68,0-.41,0-.83-.04-1.39-.07Z"/>
      <path class="cls-1" d="m114.06,14.72h14.11v29.35c-2.5-2.11-4.83-4.09-7.17-6.06-2.06-1.74-4.13-3.46-6.15-5.25-.41-.36-.83-.98-.84-1.49-.07-5.34-.06-10.69-.07-16.03,0-.13.06-.27.12-.52Z"/>
    </g>
  </g>
</svg>