<?xml version="1.0" encoding="UTF-8"?>
<svg id="Capa_2" data-name="Capa 2" xmlns="http://www.w3.org/2000/svg" viewBox="0 0 150 113.12">
  <defs>
    <style>
      .cls-1 {
        fill: #216966;
      }
    </style>
  </defs>
  <g id="Capa_1-2" data-name="Capa 1">
    <path class="cls-1" d="m0,24.92c.48-2.03.81-4.11,1.46-6.08C5.11,7.7,15.55.11,27.27.03c6.25-.04,12.5-.02,18.75,0,5.46.01,9.15,3.67,9.19,9.22.05,7.76.01,15.53.01,23.29,0,.57,0,1.14,0,1.47,4.42,0,8.65,0,12.88,0,4.49,0,7.78,2.19,9.06,6.01,1.27,3.78,0,7.43-3.55,10.14-.08.06-.15.13-.33.29,1.36,2.75.94,5.75.96,8.7.04,5.61.01,11.23.01,16.84,0,.58,0,1.17,0,1.96.9,0,1.71,0,2.52,0,3.32,0,6.64.02,9.96,0,6.68-.06,11.64-4.97,11.76-11.65.05-3.12-.02-6.25.05-9.37.05-2.37,1.88-3.76,3.87-3.05,1.11.4,1.9,1.18,1.89,2.35-.04,4.48.28,9.03-.37,13.43-1.21,8.11-8.45,14.01-16.67,14.12-5.13.07-10.25.03-15.38.02-2.45,0-3.49-1.07-3.49-3.65-.02-8.2.01-16.41-.03-24.61,0-.93-.17-2.02-.67-2.75-.42-.62-1.45-1.16-2.2-1.16-8.35,0-16.72-.33-25.03.29-16.33,1.22-30.55,14.27-33.74,30.36-.47,2.37-.69,4.79-1.04,7.3h6.16c.99-6.8,4.09-12.37,9.54-16.55,4.62-3.54,9.89-5.18,15.7-5.05,10.29.23,21.55,7.65,23.75,21.61.46.02.93.06,1.41.06,10.79,0,21.58-.03,32.37.02,4.02.02,6.87-1.65,8.81-5.16,4.23-7.64,8.55-15.22,12.78-22.86.38-.68.53-1.67.36-2.43-2.22-10.34-4.52-20.67-6.8-31-.06-.28-.17-.56-.28-.9h-5.09c0,1.95.05,3.84-.01,5.73-.07,1.96-1.41,3.16-3.2,2.99-1.5-.14-2.55-1.29-2.6-3.02-.06-1.85-.01-3.7-.01-5.78-.61,0-1.13,0-1.64,0-4.35,0-8.69,0-13.04,0-4.57-.01-7.99-3.24-8.02-7.54-.03-4.37,3.39-7.65,8.03-7.69,1.86-.01,3.71.05,5.56-.04.46-.02,1.08-.38,1.31-.77,1.58-2.63,3.87-3.89,6.91-3.88,5.03,0,10.06,0,15.09,0,3.88,0,4.33.15,7.32,2.36,3.53-2.01,7.39-1.17,11.16-1.16,1.33,0,2.29,1.3,2.31,2.78.04,3.91.04,7.81,0,11.72-.02,1.6-1,2.83-2.57,2.87-3.62.09-7.34.74-10.56-1.06-1.59.9-3.06,1.73-4.71,2.67,0,.11-.02.49.06.84,2.11,9.52,4.24,19.03,6.32,28.56.18.8.44,1.12,1.3,1.19,15.27,1.26,25.15,13.28,26.36,25.18.02.18.15.35.22.52v3.81c-.88,1.56-2.19,2.22-4,2.06-1.18-.1-2.37-.02-3.67-.02.12.42.17.6.23.78,3.77,11.64-4.35,22.68-16.62,22.66-16.36-.02-32.71,0-49.07,0-.49,0-.98.03-1.46-.03-1.75-.24-2.82-1.75-2.51-3.48.27-1.51,1.45-2.34,3.38-2.34,11.86,0,23.73,0,35.59,0,.51,0,1.02,0,1.78,0-4.21-5.46-5.14-11.21-2.76-17.88-1.62.33-3.4.15-4.15.95-3.37,3.58-7.36,5.26-12.24,5.24-13.13-.06-26.27-.02-39.4-.02h-1.74c-.03.35-.05.54-.06.73-.36,9.79-7.74,16.86-17.54,16.84-10.59-.02-21.19-.04-31.78.03-1.8.01-3.12-.5-3.99-2.07v-1.76c.84-1.6,2.16-2.12,3.96-2.09,5.94.08,11.88.03,17.83.03h1.7c-2.91-3.55-4.18-7.39-4.2-11.71-5.2,0-10.26-.06-15.31.03C2.18,95.59.87,95.05,0,93.47,0,91.32,0,89.18,0,87.03c.09-.42.21-.83.25-1.26.95-8.99,4.32-16.95,10.09-23.9,1.11-1.34,2.33-2.6,3.62-4.05-1.45-1.39-2.95-2.65-4.22-4.12-1.37-1.58-3.11-2.34-4.96-3.15C2.1,49.38.78,46.98,0,44.25,0,37.81,0,31.36,0,24.92Zm6.84-3.79c.8,0,1.34,0,1.87,0,8.74,0,17.47,0,26.21,0,1.02,0,2.05-.05,3.07.02,1.71.12,2.84,1.34,2.83,2.95-.01,1.62-1.17,2.78-2.88,2.88-.44.02-.88,0-1.32,0-9.66,0-19.33,0-28.99,0h-1.77c0,5.19,0,10.17,0,15.14,0,2.51,1.06,3.58,3.54,3.58,12.15,0,24.3,0,36.46,0,2.36,0,3.48-1.03,3.48-3.35.03-11.03.03-22.06,0-33.09,0-2.35-1.1-3.4-3.43-3.4-6.15-.01-12.3-.02-18.45,0-4.04.02-7.81,1.07-11.25,3.2-4.51,2.8-7.61,6.73-9.39,12.05Zm136.97,62.59c0-.35.04-.65,0-.93-1.5-10.01-10.89-18.43-21.01-18.91-.9-.04-1.28.34-1.67,1.03-3.27,5.88-6.58,11.74-9.86,17.61-.2.36-.35.74-.56,1.19h33.11Zm-89.07,5.88c-.95-9.06-9.68-16.17-19.42-15.73-10.7.49-16.91,9.4-17.37,15.73h36.79Zm71.85.05c-2.63,0-5.27.05-7.9-.03-.98-.03-1.48.34-1.93,1.17-2.51,4.68-1.38,10.54,2.74,13.9,4.15,3.38,10.11,3.36,14.16-.05,4.12-3.47,5.2-9.26,2.65-13.92-.42-.77-.9-1.12-1.82-1.1-2.63.06-5.27.02-7.9.02Zm-101.42,5.91c.06,4.65,1.91,8.17,5.91,10.31,4.06,2.17,8.12,1.85,11.83-.85,3.15-2.29,4.59-5.49,4.51-9.45h-22.26ZM105.77,21.4c2.78,0,5.57-.01,8.35,0,1.27,0,1.91-.54,1.9-1.84-.01-1.51-.01-3.03,0-4.54,0-1.2-.55-1.83-1.76-1.83-5.57,0-11.13,0-16.7,0-1.22,0-1.77.64-1.76,1.84.01,1.42,0,2.83,0,4.25.01,1.71.43,2.11,2.2,2.12,2.59,0,5.17,0,7.76,0Zm-42.34,24.32c1.71,0,3.42.02,5.13,0,1.89-.03,3.19-1.21,3.21-2.89.02-1.67-1.27-2.94-3.14-2.96-3.42-.03-6.84-.03-10.25,0-1.89.02-3.14,1.24-3.12,2.96.02,1.71,1.27,2.86,3.19,2.89,1.66.03,3.32,0,4.98,0Zm64.23-25.56v-5.87c-1.89.2-3.91-.66-5.27,1.31-.7,1.02-.72,2.13-.03,3.15,1.32,1.96,3.34,1.29,5.3,1.41Zm-37.73-2.26c-2.23,0-4.31-.03-6.39.01-1.07.02-1.75.64-1.77,1.73-.02,1.02.6,1.7,1.6,1.73,2.17.07,4.34.02,6.56.02v-3.49ZM22.25,51.7h-6.02c.78.88,1.52,1.7,2.24,2.5,1.29-.85,2.44-1.61,3.78-2.5Z"/>
  </g>
</svg>