<?xml version="1.0" encoding="UTF-8"?>
<svg id="Capa_2" data-name="Capa 2" xmlns="http://www.w3.org/2000/svg" viewBox="0 0 150 150">
  <defs>
    <style>
      .cls-1 {
        fill: #216966;
      }
    </style>
  </defs>
  <g id="Capa_1-2" data-name="Capa 1">
    <path class="cls-1" d="m75,0C33.58,0,0,33.58,0,75s33.58,75,75,75,75-33.58,75-75S116.42,0,75,0ZM31.44,118.56c-23.58-23.58-22.33-58.42-6.65-79.15,8.46,8.47,16.94,16.95,25.5,25.53-1.57.74-3.23,1.52-4.89,2.3-4.73,2.22-9.44,4.46-14.2,6.62-1.53.69-2.19,1.7-2.15,3.37.07,2.69,0,5.39.02,8.08.01,1.87.93,2.97,2.43,3,1.37.02,2.27-1.09,2.3-2.91.02-1.64,0-3.29,0-5.11.52.16.86.22,1.16.36,4.92,2.3,9.84,4.58,14.73,6.95.48.23,1.04.93,1.05,1.42.06,6.63.04,13.26.03,19.89,0,.15-.06.3-.12.57-.4-.14-.79-.24-1.14-.41-4.83-2.25-9.63-4.54-14.48-6.75-.95-.43-1.3-.97-1.25-2,.09-1.6.05-3.21,0-4.81-.05-1.56-.89-2.49-2.17-2.53-1.47-.04-2.49.91-2.53,2.53-.06,2.54-.14,5.08.06,7.61.06.81.77,1.93,1.49,2.28,7.12,3.45,14.29,6.8,21.49,10.06.75.34,1.96.13,2.77-.24,6.3-2.87,12.57-5.83,18.83-8.81.94-.45,1.68-.42,2.6.02,6.02,2.87,12.1,5.62,18.09,8.55,1.72.84,3.19.92,4.82-.05.34-.21,1.1-.26,1.33-.04,3.45,3.35,6.84,6.75,10.26,10.16-21.15,15.95-55.93,17-79.4-6.47Zm62.78-55.55c.01,1.15-.34,1.78-1.4,2.24-2.64,1.17-5.25,2.44-7.84,3.72-.77.38-1.29.31-1.89-.32-1.57-1.65-3.24-3.2-4.79-4.87-.41-.44-.71-1.15-.72-1.75-.07-3.26-.06-6.52,0-9.78,0-.52.31-1.31.7-1.5,5.16-2.49,10.36-4.89,15.92-7.49,0,1.2,0,2.02,0,2.83,0,5.64-.03,11.28.03,16.92Zm-16.79,29.01c3.47,2.57,16.68,16.28,16.77,17.45-.41-.15-.79-.25-1.14-.41-4.81-2.25-9.62-4.53-14.44-6.74-.87-.4-1.23-.89-1.2-1.87.06-2.73.02-5.47.02-8.43Zm10.03-18.88c3.11-1.45,6.04-2.83,8.99-4.16.26-.12.71,0,1.01.14,5,2.34,10,4.69,14.99,7.05.08.04.14.15.28.32-4.8,2.25-9.55,4.49-14.33,6.69-.28.13-.85.05-1.07-.17-3.26-3.22-6.49-6.47-9.87-9.86Zm1.65-32.91c-4.35,2.05-8.69,4.11-13.05,6.13-.47.22-1.17.41-1.59.22-5.11-2.34-10.19-4.75-15.67-7.32,5.49-2.56,10.59-4.94,15.7-7.29.29-.13.74-.14,1.03,0,5.1,2.36,10.18,4.75,15.58,7.29-.85.42-1.42.71-2,.99Zm-16.53,17.41c-4.18-4.21-8.31-8.36-12.35-12.43,1.07.49,2.37,1.09,3.66,1.69,2.53,1.18,5.04,2.4,7.59,3.53.84.37,1.14.86,1.11,1.76-.06,1.84-.02,3.68-.02,5.45Zm-.19,42.76c-.02.55-.36,1.38-.8,1.6-5.02,2.44-10.08,4.79-15.13,7.16-.13.06-.29.07-.7.15,0-3.62,0-7.08,0-10.54,0-3.11.03-6.21-.02-9.32-.01-.95.25-1.5,1.16-1.91,3.34-1.5,6.66-3.08,9.97-4.66.75-.36,1.36-.42,1.89.31.12.17.27.32.43.44,2.84,2.05,3.61,4.82,3.28,8.22-.27,2.82-.01,5.69-.09,8.53Zm-7.96-21.69c-3.71,1.73-7.16,3.36-10.63,4.95-.29.13-.73.18-1.01.05-5.19-2.4-10.36-4.83-15.77-7.36,4.63-2.17,9.01-4.25,13.41-6.28,3.67-1.69,3.68-1.66,6.59,1.25,2.41,2.41,4.82,4.81,7.4,7.39Zm51.46,22.4c-4.66-4.83-9.2-9.52-13.81-14.29,4.23-1.96,8.68-4.02,13.14-6.07.17-.08.39-.06.68-.11v20.47Zm9.86,8.89c-.17.25-.37.48-.48.62-1.78-1.78-3.52-3.53-5.06-5.07.24-1.34.67-2.69.68-4.04.07-7.98-.02-15.95.07-23.93.02-2.01-.74-3.11-2.54-3.92-5.94-2.68-11.79-5.54-17.73-8.23-1.25-.56-1.6-1.25-1.59-2.56.07-7.41-.02-14.81.07-22.22.02-2.03-.63-3.23-2.53-4.09-6.65-3-13.23-6.13-19.82-9.26-1.29-.61-2.39-.59-3.68.02-7.1,3.37-14.23,6.68-21.22,9.95-4.28-4.24-8.42-8.35-12.64-12.53,4.59-3.33,9.6-5.95,14.99-7.86,6.34-2.25,12.88-3.46,19.62-3.51,1.45,0,2.81-.13,3.39-1.83.1-.28.73-.48,1.13-.51.66-.04,1.34.14,2.01.12.93-.02,1.37.29,1.82,1.23.36.76,1.46,1.49,2.33,1.64,10.74,1.8,20.45,5.96,28.9,12.82,13.19,10.72,20.89,24.56,22.76,41.48,1.67,15.15-1.87,29.07-10.49,41.67Z"/>
  </g>
</svg>