<?xml version="1.0" encoding="UTF-8"?>
<svg id="Capa_2" data-name="Capa 2" xmlns="http://www.w3.org/2000/svg" viewBox="0 0 128.03 140.15">
  <defs>
    <style>
      .cls-1 {
        fill: #f2ff95;
      }
    </style>
  </defs>
  <g id="Capa_1-2" data-name="Capa 1">
    <g>
      <path class="cls-1" d="m44.83,25.83c-.09-5.67,1.96-10.26,5.77-14.11,3.5-3.53,7.02-7.03,10.53-10.54,1.59-1.59,2.94-1.58,4.56.04,3.89,3.89,7.86,7.71,11.65,11.69,2.78,2.93,4.23,6.5,4.65,10.58.6,5.87-1.22,10.89-5.16,15.07-1.88,2-4.2,3.66-6.92,4.48-2.84.85-5.74,1.53-8.74,1.16-3.04-.37-5.84-1.47-8.32-3.26-2.73-1.97-5.02-4.39-6.33-7.51-1.03-2.46-1.88-5.04-1.7-7.61Zm18.54,11.94c7.43-9.89,5.18-20.22.04-29.2-.65,1.49-1.29,2.89-1.88,4.31-1.33,3.22-2.77,6.41-2.68,10.03.08,3.39.51,6.61,1.9,9.83.75,1.74,1.75,3.25,2.62,5.02Zm-7.44-24.03c-3.1,2.05-5.29,4.8-6.06,8.29-1.43,6.46,1.02,11.74,6.22,15.38.33.23.71.92,1.2.45.41-.38.03-.94-.21-1.34-1.83-3.03-2.32-6.5-2.79-9.86-.42-2.97-.3-6.08.61-9.05.39-1.28.69-2.58,1.03-3.88Zm13.17,24.41c5.51-2.27,9.19-8.74,8.43-14.22-.61-4.39-4.15-9.96-6.52-10.22,3.03,8.3,2.29,16.37-1.91,24.44Z"/>
      <path class="cls-1" d="m63.45,140.09c-5.66.15-10.49-1.98-14.52-5.77-3.31-3.11-5.42-6.99-6.14-11.57-1.01-6.47.39-12.24,4.64-17.3,1.09-1.3,2.02-2.67,4.02-2.49.46.04.97.16,1.18.42.95,1.18,1.26.53,1.75-.4,2.02-3.87,4.45-7.48,7.12-10.93,1.09-1.41,2.65-1.42,3.78-.04,2.6,3.15,4.87,6.53,6.73,10.17.48.94.89,1.4,1.86.61,1.07-.88,3.12-.08,4.69,1.63,2.77,3.02,4.67,6.45,5.49,10.53,1.24,6.2-.13,11.76-3.8,16.78-3.44,4.69-8.25,7.25-13.87,8.37-.94.19-1.94.03-2.91.03Zm-16.27-21.03c-.27,4.51,1.57,8.26,4.57,11.36,3.98,4.13,8.9,5.9,14.66,4.7,4.82-1,8.62-3.57,11.14-7.82,1.87-3.15,2.54-6.59,2.1-10.28-.39-3.24-1.58-6.06-3.69-8.52-.57-.67-.97-.58-1.47.04-1.9,2.34-3.84,4.66-5.38,7.26-1.2,2.01-2.28,4.1-3.47,6.12-1.18,2-3,2.06-4.24.14-.78-1.2-1.43-2.48-2.18-3.7-2.07-3.37-4.52-6.45-7.26-9.3-.61-.63-.93-.7-1.5.13-2.07,2.98-3.48,6.15-3.26,9.87Zm16.39-21.53c-.27,0-.39.21-.54.41-2.15,2.63-3.52,5.73-5.1,8.69-.46.85-.32,1.52.25,2.24,1.6,2.01,3.22,3.99,4.55,6.19.48.79.79.75,1.28-.06,1.39-2.32,2.8-4.65,4.59-6.68.71-.81.64-1.46.26-2.3-1.26-2.8-2.9-5.38-4.68-7.88-.17-.23-.28-.52-.61-.6Z"/>
      <path class="cls-1" d="m92.72,39.44c-.55-3.98.27-8.29,1.84-12.44,1.09-2.89,2.55-5.64,3.87-8.44,1.16-2.46,2.31-4.93,3.53-7.36,1.04-2.07,2.65-1.83,3.99-.63,4.64,4.14,9.87,7.56,14.19,12.07,3.59,3.74,6,8.19,7.06,13.21,1.32,6.21,1.48,12.46-2.66,17.83-2.94,3.81-6.83,6.19-11.83,6.67-3.32.32-6.36-.22-9.27-1.77-3.93-2.11-6.59-5.35-8.31-9.4-1.25-2.95-2.23-5.99-2.41-9.73Zm30.44,3.32c0-1.43.1-2.52-.02-3.58-.62-5.49-3.28-10.11-6.98-13.94-3.23-3.34-7.09-6.06-10.66-9.07-.38-.32-.61-.37-.83.18-.32.8-.7,1.58-1.1,2.34-1.98,3.8-3.78,7.7-5.22,11.72-1.39,3.85-1.25,7.91-.5,11.85.65,3.43,1.97,6.78,4.35,9.36,3.39,3.66,7.63,5.17,12.63,3.45,2.28-.78,4.22-1.98,5.75-3.91,2.06-2.61,2.89-5.51,2.59-8.42Z"/>
      <path class="cls-1" d="m26.3,122.56c-1.12-.18-1.87.19-2.68,1.62-3.3,5.81-11.27,5.6-14.15.05-.68-1.31-2.04-1.59-3.04-2.41-2.84-2.34-4.46-5.25-4.53-8.93-.03-1.27-.17-2.42-.8-3.57-1.63-3-.42-8.26,2.85-9.99,1.92-1.02,3.71-1.31,5.7-1.3.75,0,1.2-.07,1.54-.94,2.05-5.31,9.38-6.72,13.58-2.33.13.14.33.26.39.43.62,1.73,2.1,2.53,3.49,3.54,3,2.17,4.86,5.31,4.65,8.95-.12,2.1,1,3.53,1.42,5.27,1.2,4.96-3.57,10.08-7.87,9.63-.1-.01-.19,0-.55,0Zm-19.68-11.24c-.31,3.07.61,5.4,2.73,6.73,1.96,1.23,3.45,2.68,4.76,4.54,1.03,1.46,2.71,1.54,4.22.6,1.58-.99,2.09-2.56,1.4-4.35-.6-1.56-.32-3.03.68-3.52,1.01-.49,2.59.13,3.46,1.24.8,1.02,1.96,1.88,3.2,1.53,3.18-.9,3.96-3.44,2.41-5.85-.68-1.06-1.37-2.16-.77-3.62.36-.88.14-2.24-.16-2.82-.77-1.49-1.53-3.24-3.37-3.89-1.53-.54-2.49-1.59-3.21-3.06-.91-1.87-3.33-2.6-4.94-1.7-1.39.79-2.46,3.09-1.16,5.19.53.85.87,1.81,1.38,2.67.65,1.1.47,2.04-.48,2.78-.98.75-2.37.54-3.25-.29-.91-.86-1.23-2.04-1.84-3.06-.93-1.55-3.29-2.32-4.74-1.5-1.87,1.06-2.28,2.53-1.39,4.56.59,1.34,1.42,2.66,1.06,3.81Z"/>
      <path class="cls-1" d="m99.38,94.5c-1.46.02-3.6,0-5.66-1.11-3.95-2.13-5.69-7.13-3.73-11.17,1.23-2.54,4.03-4.33,6.96-4.4,1.36-.04,2.73-.06,4.09,0,1.93.09,3.94-1.63,4.06-3.71.27-4.81,2.9-7.89,6.95-8.57,4.82-.81,8,1.73,9.21,5.57.4,1.27.24,2.61.13,3.89-.44,5.02-2.17,9.55-5.8,13.12-4.26,4.2-9.38,6.52-16.21,6.36Zm.44-4.68c1.35-.04,2.58,0,3.83-.29,8.03-1.87,13.12-8.11,13.13-16.49,0-2-2.44-3.41-4.16-2.93-2.33.65-2.67,2.62-2.87,4.6-.37,3.7-3.14,6.77-6.76,7.55-1.79.38-3.57.15-5.36.21-2.03.07-3.32,1.03-3.64,2.77-.34,1.88.7,3.56,2.51,4.29,1.14.46,2.29.15,3.32.28Z"/>
      <path class="cls-1" d="m60.09,49.16c5.92.04,10.65,1.64,14.72,5.23,1.71,1.51,3.52,2.84,4.02,5.25.84,4.07-.71,7.89-4.66,9.77-3.93,1.87-6.98.18-9.94-2.16-3.02-2.4-4.95-2.37-7.35.42-2.1,2.44-4.86,3.09-7.86,2.83-2.96-.26-6.43-3.98-6.56-7.09-.13-3.14,1.05-5.44,3.17-7.63,2.92-3.02,6.32-5.06,10.33-6.13,1.52-.41,3.1-.6,4.14-.48Zm.68,4.65c-.92.06-1.84.04-2.75.18-4.21.64-7.24,3.19-10.04,6.18-1.04,1.11-1.06,3.19-.08,4.51.86,1.15,2.66,1.51,4.07.86,1.19-.54,1.9-1.62,2.81-2.47,2.35-2.21,5.09-2.59,8.12-1.92,2.43.53,4.1,2.29,6.04,3.59,2.02,1.36,3.37.98,5.13-1.09.74-.87.4-3.46-.63-4.42-3.56-3.33-7.59-5.59-12.67-5.43Z"/>
      <path class="cls-1" d="m108.35,130.74c-6.48.27-12.99-5.73-13.59-12.58-.39-4.47,1.01-8.14,3.93-11.21,2.12-2.23,4.84-3.66,8.07-4.01,3.17-.34,5.78-1.97,7.92-4.29.86-.93,2.33-1.4,3.4-.63.92.66,1.16,1.47.66,2.8-.34.91-.04,2.3.11,3.47.27,2.1,1.2,3.94,2.18,5.77,2.98,5.54,1.89,12.67-2.83,17-2.19,2.01-5.67,3.93-9.84,3.69Zm9.52-14.18c.15-1.3,0-2.73-.77-4.05-1.17-2.03-2.05-4.19-2.67-6.44-.22-.79-.47-.83-1.08-.5-2.07,1.14-4.35,1.57-6.63,2.08-4.78,1.07-7.88,5.59-7.19,10.34.71,4.92,5.1,8.48,10.02,8.03,4.69-.43,8.87-4.44,8.32-9.47Z"/>
      <path class="cls-1" d="m29.49,46.55c-6.06-.36-11.69-1.84-16.03-6.42-2.4-2.53-3.42-5.63-2.37-9,1.06-3.4,3.39-5.65,7.01-6.52,3.72-.89,8,.98,10.6,4.78,1.53,2.23,2.64,4.63,3.31,7.26.37,1.46.34,3.05.75,4.35.34,1.08-.1,2.07.32,3.09.39.94-1.05,2.34-2.28,2.46-.43.04-.88,0-1.31,0Zm-13.89-12.83c-.13.8.08,1.74.67,2.44,2.84,3.37,6.52,5.01,10.9,5.15.72.02.9-.37.69-.9-.39-1-.22-2.08-.55-3.08-1.07-3.26-2.04-6.56-5.82-7.86-3-1.03-5.88.92-5.9,4.26Z"/>
      <path class="cls-1" d="m21.43,80.72c-.12-4.17,1.87-8.02,4.53-11.63.76-1.03,1.52-2.06,2.28-3.1,1.18-1.62,2.98-2.34,4.56-.33,2.65,3.39,5.61,6.63,6.59,11,.74,3.33,1.33,6.74-.75,9.86-2.27,3.41-5.53,5.11-9.58,4.41-3.61-.62-5.98-3.01-7.29-6.46-.41-1.08-.25-2.17-.34-3.75Zm4.72.25c0,.24.03.49,0,.73-.29,2.2,2.31,4.82,4.72,4.6,2.77-.25,4.64-2.15,4.58-4.77-.09-3.91-1.65-7.31-4.15-10.3-.43-.51-.66-.4-1,.02-2.31,2.85-4.1,5.91-4.14,9.72Z"/>
      <path class="cls-1" d="m8.67,67.59c-3.26.2-5.9-.82-7.62-3.61-1.54-2.51-1.31-5.1.19-7.52,1.16-1.88,2.95-2.84,5.22-2.9,1.09-.03,2.22.29,3.28-.23.15-.07.43-.04.56.06,2.51,2.04,5.32,3.78,7.06,6.63.36.58.93.93,1.24,1.58.81,1.69.76,2.58-.83,3.34-2.89,1.37-5.77,2.95-9.08,2.66Zm0-4.72c1.23.17,2.37-.3,3.53-.63.51-.15.78-.43.36-.93-1.46-1.73-3.18-2.96-5.56-3.05-1.12-.04-1.81.53-2.09,1.46-.3,1,.05,1.93.97,2.55.84.57,1.78.75,2.8.61Z"/>
      <path class="cls-1" d="m83.17,82.96c-.01,3.41-1.81,5.53-4.81,6.55-2.36.81-4.59.4-6.65-1.25-2.65-2.12-4.1-4.85-4.99-8.05-.34-1.23-.92-2.36-.84-3.69.05-.88.57-1.48,1.24-1.54,3.42-.33,6.9-.65,10.18.59,2.58.98,4.91,2.43,5.69,5.45.18.69,0,1.34.19,1.94Zm-10.45-3.68c-.3.3-1.44-.52-1.06.78.51,1.75,1.41,3.3,2.9,4.41,1.36,1.02,2.89.89,3.6-.21.79-1.22.33-2.88-1.09-3.72-1.31-.78-2.75-1.16-4.35-1.27Z"/>
      <path class="cls-1" d="m107.75,25.81c1.21-.01,2.15.77,2.26,1.96.1,1.01.49,1.91.79,2.86.48,1.5.54,3.1.92,4.64,1.02,4.13,1.86,8.31,2.79,12.46.33,1.47-.34,2.74-1.74,3.15-1.13.34-2.36-.35-2.71-1.76-.94-3.85-1.78-7.73-2.65-11.6-.66-2.93-1.29-5.87-1.94-8.81-.34-1.55.71-2.89,2.27-2.91Z"/>
      <path class="cls-1" d="m102.52,34.29c1.35-.18,1.95.73,2.23,1.88.71,2.96,1.36,5.94,2.01,8.91.24,1.12-.53,2.4-1.54,2.63-1.32.31-2.78-.37-3.06-1.54-.72-3.02-1.43-6.04-2.03-9.08-.36-1.81.55-2.82,2.39-2.81Z"/>
      <path class="cls-1" d="m116.21,31.04c1.1.22,2.01.94,2.25,2.17.57,2.91,1.45,5.76,1.82,8.71.19,1.5-.33,2.44-1.68,2.82-1.09.31-2.31-.35-2.68-1.67-.59-2.12-1.03-4.27-1.51-6.42-.25-1.12-.65-2.22-.6-3.39.06-1.3,1.02-2.23,2.38-2.22Z"/>
      <path class="cls-1" d="m102.4,118.24c.16-3.09,1.97-6.18,4.96-8.63,1.01-.83,2.26-.61,3.11.38.7.81.73,2.27-.12,3.04-2.04,1.85-3.26,4-3.33,6.84-.04,1.5-1.35,2.52-2.6,2.39-1.39-.15-2.05-1.19-2.02-4.02Z"/>
    </g>
  </g>
</svg>