<?xml version="1.0" encoding="UTF-8"?>
<svg id="Capa_2" data-name="Capa 2" xmlns="http://www.w3.org/2000/svg" viewBox="0 0 150 149.26">
  <defs>
    <style>
      .cls-1 {
        fill: #216966;
      }
    </style>
  </defs>
  <g id="Capa_1-2" data-name="Capa 1">
    <g>
      <path class="cls-1" d="m95.08,134.01c.37-.24.76-.2,1.33,0-5.8,2.91-11.43,5.86-17.18,8.56-3.13,1.48-6.48,2.59-9.91,3.09-3.78.55-7.62.57-11.46.11-4.56-.54-8.83-1.95-12.86-4.02-4.62-2.37-8.54-5.62-12.07-9.5-3.66-4.03-6.84-8.6-11.67-11.46-.39-.23-.81-.4-1.18-.65-.86-.58-1.24-.25-1.7.6-1.41,2.58-3,5.06-4.42,7.64-1.39,2.52-2.71,5.08-3.99,7.66-1.35,2.71-2.63,5.46-3.91,8.21-.65,1.39-1.27,2.79-1.86,4.21-.33.8-.71,1.03-1.58.62-2.9-1.36-3.13-1.81-1.92-4.82.76-1.89,1.92-3.62,2.63-5.47.74-1.92,1.59-3.78,2.56-5.55,1.78-3.25,3.51-6.54,5.46-9.71,1.08-1.76,1.99-3.68,3.05-5.48.41-.69.1-1.18-.26-1.61-3.93-4.81-6.44-10.4-8.59-16.13-.56-1.49-.67-3.31-.78-5.03-.07-1.09.15-2.4-.62-3.44-.29-.39-.14-.88-.14-1.33-.01-1.78.01-3.55,0-5.33-.03-4.51,1.11-8.81,2.54-13.03.73-2.18,1.6-4.36,2.77-6.32.96-1.62,2.05-3.23,2.85-4.89,1.07-2.23,2.45-4.28,3.45-6.53.15-.35.2-.33.54-.01-.64,2.02-.88,4.12-1.15,6.2-.46,3.55-.75,7.11-1.03,10.68-.47,6.13-.14,12.2.61,18.28.4,3.25.94,6.48,1.29,9.73.49,4.54.31,9.1.34,13.65,0,.4-.25.9.34,1.3,2.06-2.84,3.97-5.74,5.76-8.72,1.59-2.16,3.17-4.32,4.77-6.47,1.57-2.12,3.15-4.24,4.76-6.33.34-.44.13-.71-.04-1.08-1.92-4.25-3.43-8.65-4.31-13.23-.51-2.65-.79-5.34-1.14-7.99-.46-3.48-.33-6.91-.32-10.34.01-4.89,1.19-9.66,2.38-14.39,1.23-4.91,2.45-9.82,3.64-14.73.1-.41.18-.65.62-.64.06,3.19-.33,6.35-.67,9.5-.62,5.72-.92,11.46-1.11,17.2-.32,9.55.31,19.09,1.2,28.6.17,1.83.49,3.64.79,5.78,1.59-2.03,3.28-3.6,4.39-5.65.2,0,.28-.11.31-.28l-.02.02c1.81-1.41,2.97-3.39,4.49-5.06,3.03-3.32,6.02-6.69,9.34-9.72.8-.73.69-1.05.19-1.74-3.11-4.28-5.34-8.98-6.93-14.02-1.76-5.57-1.8-11.3-1.52-17.01.18-3.64.86-7.32,2.42-10.66,1.32-2.84,2.27-5.81,3.9-8.58,2.33-3.94,4.72-7.86,7.01-11.83.59.55.02,1.04-.12,1.51-.73,2.47-1.61,4.9-2.28,7.38-1.86,6.92-3.03,13.94-3.46,21.12-.3,4.97-.23,9.91.15,14.83.4,5.11,1.15,10.2,1.76,15.29.07.62-.31,1.67.3,1.77.68.11,1.4-.65,1.85-1.32.25-.37.65-.67.61-1.19,1.55-.5,2.45-1.88,3.55-2.9,2.32-2.16,4.77-4.16,7.1-6.3.58-.54.67-.86.43-1.62-1.12-3.48-2.63-6.84-3.21-10.5-.67-4.26-.88-8.43.16-12.71.6-2.48,1.32-4.89,2.4-7.14,1.33-2.76,3.07-5.33,5.1-7.64,2.97-3.38,6.03-6.67,9.07-9.99.37-.4.69-.9,1.31-.97.22.4.11.7-.14,1.09-2.32,3.74-4.19,7.71-5.94,11.75-4.66,10.73-6.98,21.98-7.62,33.61-.05.82,0,1.64,0,2.85,1.99-1.62,3.76-2.8,5.19-4.39,4.13-3.06,8.25-6.12,12.39-9.17.88-.65,1.77-1.3,2.73-1.81,1.36-.72,1.72-1.74,1.69-3.26-.11-5.43-.21-10.86.02-16.28.16-3.85,1.62-7.41,3.57-10.77,2.44-4.21,5.99-7.24,9.98-9.87.11-.08.29-.06.44-.09.07.55-.21.95-.51,1.38-5.05,7.32-8.55,15.35-10.92,23.9-1.12,4.04-1.73,8.17-2.28,12.31-.04.32-.18.79.24.94.22.08.6-.08.82-.24.89-.65,1.9-1.15,2.59-2.04,2.57-1.49,5.14-2.96,7.69-4.47,1.24-.74,2.46-1.48,3.8-2.06,2.03-.87,2.85-2.79,3.64-4.73,2.36-5.84,6.32-10.4,11.44-14.03,6.15-4.36,12.9-7.35,20.27-8.93,2.68-.58,5.37-1.16,8.05-1.74-.12.46-.52.54-.9.71-5.35,2.31-10.47,5.07-15.39,8.18-8.17,5.15-15.47,11.37-22.09,18.39-1.12,1.18-2.15,2.45-3.27,3.74,1.91.37,3.59-.37,5.31-.21-5.93,3.48-11.92,6.85-17.65,10.64-.26.17-.5.32-.6.63-.84.31-1.67.63-2.2,1.47,6.38,1.39,12.81,1.89,19.25,2.15,5.2.21,10.41-.06,15.61-.52,4.83-.43,9.6-1.14,14.35-2.06,3.06-.59,6.11-1.3,9.16-1.95-5.46,5.15-11.36,9.55-18.53,12.22-5.86,2.18-11.91,2.51-17.89,1.93-6.06-.58-11.7-3.01-16.68-6.68-1.57-1.16-3.22-2.22-4.69-3.49-1.23-1.06-2.21-.91-3.4-.02-3.97,2.99-8.04,5.84-11.94,8.92-2.16,1.7-4.49,3.25-6.28,5.39-.84.14-1.28.7-1.5,1.48-1.55.24-2.37,1.59-3.4,2.48-2.97,2.57-5.72,5.4-8.55,8.13-.66.63-1.27,1.29-1.49,2.22,0,0,.02-.01.02-.01-.6-.22-.65.32-.88.62-1.47.5-2.21,1.79-3.32,2.96,3.11.31,6.03,0,8.96.34,7.44.84,14.14,3.41,20.06,7.93,7.67,5.85,16.26,8.9,25.93,8.88,3.1,0,6.2,0,9.3.01-2.95,1.53-6.06,2.65-9.22,3.65-4.41,1.4-8.95,1.3-13.48,1.16-1.61-.05-3.24-.51-4.82-.94-5.53-1.49-10.33-4.32-14.75-7.91-3.99-3.24-8-6.45-12.78-8.62-2.24-1.02-4.35-2.28-6.81-2.72-1.08-.19-2.17-.44-3.26-.44-1.33,0-1.89,1.27-2.63,2.08-2.43,2.68-4.75,5.45-7.08,8.22-1.91,2.27-3.76,4.58-5.63,6.88-.08.1-.03.29-.04.44.15.59.15.62.95.61,3.65-.04,7.3-.06,10.9.62,4.5.85,8.83,2.18,12.87,4.38,4.08,2.23,7.88,5,12.29,6.62,3.61,1.33,7.26,2.74,11.09,2.92,5.83.28,11.68.06,17.53.05.1.1.68.07.27.28-4.3,2.21-8.62,4.28-13.43,5.27-3.47.72-6.96.9-10.44.73-1.63-.08-3.34-.62-4.93-.8-1.82-.2-3.39-.85-5.05-1.35-4.52-1.36-8.34-3.97-12-6.84-3.27-2.56-6.49-5.19-10.13-7.21-3.09-1.71-6.39-3-9.75-4.1-.78-.26-1.4,0-1.89.66-3.66,4.98-7.32,9.98-10.59,15.23-.97,1.55-2.11,2.99-2.95,4.63-.27.52-.2.57.27.59.08.35.32.47.66.52,1.45.2,2.9.42,4.35.62,6.66.95,12.71,3.34,17.86,7.74,6.5,5.55,14.03,8.34,22.56,8.38,5.14.02,10.25-.07,15.37-.97,2.75-.48,5.73-.2,8.57-.58,1.1-.14,2.41.24,3.28-.86.2.02.41.04.61.06.54.39,1.11.24,1.68.08Z"/>
      <path class="cls-1" d="m92.79,133.87c-.87,1.1-2.19.72-3.28.86-2.84.38-5.82.09-8.57.58-5.13.9-10.23,1-15.37.97-8.53-.04-16.05-2.83-22.56-8.38-5.15-4.4-11.2-6.79-17.86-7.74-1.45-.21-2.9-.42-4.35-.62-.33-.05-.57-.17-.66-.52,4.29-.72,8.56-1.55,12.91-1.96,8.53-.8,16.75.49,24.79,3.19,5.28,1.77,10.06,4.62,14.94,7.23,4.9,2.62,9.96,4.7,15.51,5.54,1.49.22,3.06.25,4.5.86Z"/>
      <path class="cls-1" d="m115.61,94.89c-3.1,0-6.2-.02-9.3-.01-9.67.03-18.27-3.03-25.93-8.88-5.93-4.52-12.63-7.09-20.06-7.93-2.92-.33-5.84-.03-8.96-.34,1.1-1.18,1.85-2.46,3.32-2.96.43-.02.99.15.88-.62,0,0-.02.01-.02.01,2.4.26,4.63-.71,6.96-.98,2.84-.33,5.64-.3,8.44.1,2.69.39,5.33,1.06,7.89,2.02,3.74,1.4,6.93,3.68,10.06,6.07,7,5.33,14.31,10.04,22.94,12.37,1.27.34,2.63.44,3.79,1.15Z"/>
      <path class="cls-1" d="m37.26,85.72c-1.1,2.05-2.8,3.62-4.39,5.65-.3-2.14-.62-3.95-.79-5.78-.89-9.51-1.52-19.04-1.2-28.6.19-5.74.49-11.48,1.11-17.2.34-3.15.73-6.31.67-9.5.05-.37-.13-.84.48-1.02.54,2.28.53,4.61.95,6.9.84,4.58,2.11,9.02,3.6,13.41,1.43,4.23,2.31,8.57,2.66,13.05.26,3.29.01,6.53,0,9.79-.02,3.77-1.39,7.17-2.27,10.72-.19.77-.67,1.46-.54,2.31,0,0,.02-.02.02-.02-.24-.06-.28.11-.31.28Z"/>
      <path class="cls-1" d="m68.98,61.34c.22-.77.66-1.33,1.5-1.48,1.92.28,3.74-.44,5.58-.72,4.35-.66,8.64-.96,13.06-.57,5.36.48,10.5,1.61,15.41,3.75,6.94,3.02,12.98,7.31,17.88,13.13,1.17,1.39,2.37,2.75,3.25,4.35-2.03.24-3.84-.7-5.75-1.09-7.46-1.52-14.51-4.07-20.75-8.54-8.57-6.14-18.25-8.65-28.67-8.79l-1.51-.05Z"/>
      <path class="cls-1" d="m111.97,31.23c-1.72-.16-3.4.58-5.31.21,1.12-1.29,2.16-2.55,3.27-3.74,6.62-7.02,13.92-13.23,22.09-18.39,4.92-3.1,10.04-5.86,15.39-8.18.38-.16.78-.24.9-.71,0,0-.02.04-.02.04.11-.08.22-.15.32-.23.39-.03.9-.3,1.11.11.22.44-.33.68-.59.95-2.04,2.12-4.36,4-6.04,6.43-1.57,2.27-2.61,4.87-4.25,7.12-5.72,7.82-13.15,13.14-22.62,15.51-1.41.35-2.78.83-4.25.87Z"/>
      <path class="cls-1" d="m55.26,66.25c.04.52-.37.82-.61,1.19-.45.67-1.17,1.43-1.85,1.32-.6-.1-.22-1.15-.3-1.77-.61-5.1-1.37-10.18-1.76-15.29-.38-4.93-.45-9.87-.15-14.83.43-7.18,1.6-14.2,3.46-21.12.67-2.49,1.55-4.91,2.28-7.38.14-.46.71-.96.12-1.51.21-.38.32-.85,1.07-1.21-.48,1.87-.86,3.53-1.34,5.17-1.24,4.25-1.39,8.6-.19,12.78.7,2.43,1.37,4.93,2.46,7.3.81,1.78.78,3.94,1.06,5.95.08.56.24,1.01.49,1.52.51,1.05.03,2.24.09,3.38.15,2.59.4,5.27-.05,7.79-.52,2.85-1,5.74-1.76,8.56-.69,2.55-1.74,4.94-2.89,7.3-.12.26-.09.59-.13.88Z"/>
      <path class="cls-1" d="m100.76,111.91c-5.84,0-11.7.22-17.53-.05-3.83-.18-7.48-1.59-11.09-2.92-4.42-1.62-8.21-4.39-12.29-6.62-4.04-2.21-8.37-3.54-12.87-4.38-3.6-.68-7.25-.66-10.9-.62-.8,0-.8-.01-.95-.61,1.9-.27,3.91-.06,5.55-1.39.1-.09.29-.12.43-.11,4.02.52,7.99-.61,12.01-.35,9.36.61,18.23,2.71,26.28,7.76,3.43,2.15,6.69,4.58,10.32,6.43,1.84.94,3.87,1.2,5.84,1.66,1.73.41,3.53.51,5.2,1.2Z"/>
      <path class="cls-1" d="m22.31,105.51c-1.79,2.98-3.7,5.89-5.76,8.72-.58-.4-.34-.9-.34-1.3-.03-4.55.15-9.12-.34-13.65-.35-3.25-.89-6.48-1.29-9.73-.75-6.07-1.08-12.14-.61-18.28.27-3.57.56-7.13,1.03-10.68.27-2.08.51-4.18,1.15-6.2.03,1.82.05,3.65.08,5.47.09,6.14,1.62,11.97,3.93,17.62,1.68,4.1,2.65,8.34,3.12,12.76.54,5.03-.03,9.92-.96,14.81-.03.15,0,.3,0,.46Z"/>
      <path class="cls-1" d="m72.66,51.39c-1.43,1.59-3.2,2.76-5.19,4.39,0-1.21-.04-2.03,0-2.85.64-11.63,2.96-22.88,7.62-33.61,1.75-4.04,3.62-8.01,5.94-11.75.24-.39.36-.69.14-1.09.9-1.22,1.79-2.44,2.69-3.66.12.07.25.14.37.21-.41,1.25-.75,2.53-1.23,3.75-1.06,2.67-1.4,5.51-2.15,8.25-1.1,4.05-1.07,8.19-1.16,12.31-.17,8.18-2.34,15.7-6.89,22.54-.24.36-1.29.91-.15,1.52Z"/>
      <path class="cls-1" d="m149.89,41.59c-3.05.65-6.1,1.36-9.16,1.95-4.75.92-9.52,1.63-14.35,2.06-5.2.46-10.4.72-15.61.52-6.44-.25-12.88-.76-19.25-2.15.53-.85,1.36-1.17,2.2-1.47,1.94.07,3.76-.61,5.6-1.02,4.17-.91,8.34-1.66,12.6-2.07,3.25-.32,6.48-.56,9.74-.57,5.2-.02,10.32.68,15.42,1.58,3.77.66,7.58,1.01,11.42.88.5-.02.99.06,1.49.1,0,0,.02.07.01.09-.02.04-.07.07-.1.11Z"/>
      <path class="cls-1" d="m70.49,61.39c10.42.14,20.1,2.65,28.67,8.79,6.24,4.47,13.29,7.02,20.75,8.54,1.91.39,3.72,1.33,5.75,1.09,0,0,.03.04.03.04-.08.12-.17.24-.25.36-5.63.02-11.28.28-16.89-.03-4.72-.26-9.27-1.69-13.57-3.71-4.26-2-8.03-4.7-11.55-7.87-1.91-1.72-4.32-2.99-6.69-4.18-2.07-1.04-4.3-1.75-6.25-3.03Z"/>
      <path class="cls-1" d="m93.41,36.39c-.69.9-1.71,1.39-2.59,2.04-.22.16-.6.32-.82.24-.42-.15-.28-.62-.24-.94.55-4.14,1.16-8.28,2.28-12.31,2.37-8.54,5.87-16.57,10.92-23.9.3-.43.57-.83.51-1.38,1.07-.5.57.46.59.71.21,2.52-.01,5.05-.34,7.54-.49,3.75-1.14,7.48-2.29,11.11-1.74,5.49-3.96,10.72-7.32,15.43-.32.45-.67.87-.69,1.45Z"/>
      <path class="cls-1" d="m95.08,134.01c-.57.15-1.14.31-1.68-.08.56-.07,1.13-.19,1.68.08Z"/>
      <path class="cls-1" d="m125.43,80.21c.08-.12.17-.24.25-.36.07.1.15.19.22.29l-.47.07Z"/>
      <path class="cls-1" d="m148.61.24c-.11.08-.22.15-.32.23.05-.16.13-.27.32-.23Z"/>
      <path class="cls-1" d="m55.56,74.15c.1.77-.46.6-.88.62.23-.3.28-.85.88-.62Z"/>
      <path class="cls-1" d="m37.26,85.72c.04-.17.08-.34.31-.28-.03.17-.12.29-.31.28Z"/>
    </g>
  </g>
</svg>