<?xml version="1.0" encoding="UTF-8"?>
<svg id="Capa_2" data-name="Capa 2" xmlns="http://www.w3.org/2000/svg" viewBox="0 0 150 150.04">
  <defs>
    <style>
      .cls-1 {
        fill: #d5f0e9;
      }
    </style>
  </defs>
  <g id="Capa_1-2" data-name="Capa 1">
    <g>
      <path class="cls-1" d="m150,37.78v74.4c-.09.52-.2,1.03-.26,1.56-.44,4.05-1.35,8.02-3.09,11.68-7.52,15.81-20.07,24.26-37.59,24.47-22.69.28-45.4.08-68.09.06-7.11,0-13.89-1.54-20.03-5.16C7.2,136.7.16,124.56.07,108.61c-.12-22.4-.06-44.81,0-67.22,0-2.82.16-5.7.77-8.43C4.53,16.42,14.61,5.82,30.93,1.24c2.24-.63,4.59-.84,6.89-1.24,24.8,0,49.6,0,74.4,0,1.58.24,3.19.39,4.75.75,16.57,3.76,27.21,13.8,31.8,30.17.62,2.23.83,4.57,1.24,6.87Zm-8.79,37.19c0-11.18.04-22.35-.03-33.53-.02-2.52-.17-5.1-.74-7.55-3.53-15.19-16.03-25.08-31.6-25.1-22.55-.03-45.1-.03-67.65.03-2.42,0-4.91.19-7.26.74-15.19,3.54-25.08,16.03-25.1,31.6-.03,22.55-.03,45.1.02,67.65,0,2.38.18,4.81.69,7.12,3.29,14.98,15.97,25.19,31.36,25.23,22.74.06,45.49.02,68.23.01,4.59,0,9.06-.79,13.2-2.8,12.31-5.98,18.66-15.9,18.85-29.57.16-11.27.03-22.55.03-33.82Z"/>
      <path class="cls-1" d="m75.08,33.98c22.57.07,41.01,18.57,40.94,41.06-.07,22.57-18.57,41.01-41.06,40.94-22.57-.07-41.01-18.57-40.94-41.06.07-22.57,18.57-41.01,41.06-40.94Zm-.09,8.79c-17.73.03-32.24,14.59-32.18,32.28.06,17.69,14.49,32.1,32.17,32.14,17.7.04,32.24-14.48,32.25-32.2,0-17.71-14.54-32.24-32.24-32.21Z"/>
      <path class="cls-1" d="m104.9,31.4c.11-6.64,5.77-12.19,12.23-11.98,6.73.21,12.18,5.78,11.98,12.24-.2,6.73-5.67,12.08-12.24,11.98-6.65-.1-12.09-5.66-11.98-12.23Zm15.4.14c0-1.74-1.51-3.28-3.25-3.31-1.73-.03-3.29,1.47-3.35,3.22-.06,1.78,1.54,3.41,3.33,3.39,1.74-.02,3.27-1.55,3.27-3.3Z"/>
    </g>
  </g>
</svg>