<?xml version="1.0" encoding="UTF-8"?>
<svg id="Capa_2" data-name="Capa 2" xmlns="http://www.w3.org/2000/svg" viewBox="0 0 152 85.61">
  <defs>
    <style>
      .cls-1 {
        stroke-width: 2px;
      }

      .cls-1, .cls-2 {
        fill: none;
        stroke: #216966;
        stroke-miterlimit: 10;
      }

      .cls-3 {
        fill: #216966;
      }
    </style>
  </defs>
  <g id="Capa_1-2" data-name="Capa 1">
    <g>
      <ellipse class="cls-1" cx="76" cy="42.8" rx="75" ry="41.8"/>
      <line class="cls-2" x1="14.86" y1="52.21" x2="55.1" y2="52.21"/>
      <line class="cls-2" x1="97.72" y1="52.21" x2="137.55" y2="52.21"/>
      <g>
        <path class="cls-3" d="m33.77,28.19l-2.28,17.5h6.63l-.53,4.1h-10.5l2.81-21.59h3.87Z"/>
        <path class="cls-3" d="m45.22,49.78c-.02-.47-.02-.81-.02-1,0-.21.02-.55.07-1.03.03-.28.05-.53.06-.74-.78,2.11-2.13,3.16-4.04,3.16-1.1,0-2.01-.42-2.71-1.25-.7-.83-1.05-1.87-1.05-3.13,0-1.75.61-3.15,1.84-4.21,1.23-1.06,3.45-1.68,6.66-1.87.15-.51.22-.99.22-1.44,0-.59-.15-1.06-.44-1.4-.3-.34-.7-.51-1.2-.51-1.26,0-2.1.81-2.52,2.44l-3.29-.47c.88-3.28,2.91-4.92,6.08-4.92,1.6,0,2.82.43,3.66,1.28.83.85,1.25,1.98,1.25,3.37,0,.51-.12,1.67-.35,3.48l-.54,4.13c-.17,1.33-.26,2.35-.26,3.05,0,.34.02.69.06,1.06h-3.49Zm.56-7.8c-2.96.14-4.44,1.23-4.44,3.28,0,.56.13,1.02.39,1.4.26.37.61.56,1.04.56.71,0,1.34-.44,1.89-1.31.55-.87.93-2.18,1.12-3.93Z"/>
        <path class="cls-3" d="m73.82,28.19l-.53,4.1h-7.54l-.63,4.82h6.4l-.53,4.1h-6.26l-1.12,8.57h-4.03l2.81-21.59h11.43Z"/>
        <path class="cls-3" d="m79.28,38.12c-.68,0-1.23.13-1.67.39-.44.26-.84.73-1.2,1.41-.37.68-.63,1.44-.8,2.29-.17.84-.37,2.21-.6,4.1l-.45,3.48h-3.78l2.1-16.09h3.5l-.47,3.7c.37-1.1.74-1.93,1.11-2.51.37-.58.75-.95,1.14-1.14.39-.18.89-.28,1.51-.28l-.38,4.65Z"/>
        <path class="cls-3" d="m85.61,49.78c-.02-.47-.02-.81-.02-1,0-.21.02-.55.07-1.03.03-.28.05-.53.06-.74-.78,2.11-2.13,3.16-4.04,3.16-1.1,0-2.01-.42-2.71-1.25-.7-.83-1.05-1.87-1.05-3.13,0-1.75.61-3.15,1.84-4.21,1.23-1.06,3.45-1.68,6.66-1.87.15-.51.22-.99.22-1.44,0-.59-.15-1.06-.44-1.4-.3-.34-.7-.51-1.2-.51-1.26,0-2.1.81-2.52,2.44l-3.29-.47c.88-3.28,2.91-4.92,6.08-4.92,1.6,0,2.82.43,3.66,1.28.83.85,1.25,1.98,1.25,3.37,0,.51-.12,1.67-.35,3.48l-.54,4.13c-.17,1.33-.26,2.35-.26,3.05,0,.34.02.69.06,1.06h-3.49Zm.56-7.8c-2.96.14-4.44,1.23-4.44,3.28,0,.56.13,1.02.39,1.4.26.37.61.56,1.04.56.71,0,1.34-.44,1.89-1.31.55-.87.93-2.18,1.12-3.93Z"/>
        <path class="cls-3" d="m95.75,33.69l-.4,3.05c.91-2.22,2.17-3.34,3.77-3.34.99,0,1.79.41,2.42,1.23s.93,1.85.93,3.11c0,.51-.09,1.5-.28,2.99l-1.19,9.05h-3.62l1.22-9.4c.12-.94.19-1.53.19-1.77,0-1.13-.43-1.69-1.3-1.69-.45,0-.87.19-1.25.58-.38.39-.65.88-.83,1.49s-.34,1.55-.51,2.84l-1.04,7.96h-3.63l2.1-16.09h3.4Z"/>
        <path class="cls-3" d="m114.07,44.1c-1.06,4.01-2.99,6.01-5.79,6.01-1.74,0-3.09-.7-4.04-2.1-.95-1.4-1.43-3.17-1.43-5.32,0-2.41.59-4.57,1.78-6.46,1.18-1.89,2.76-2.84,4.74-2.84,1.79,0,3.11.62,3.94,1.87.84,1.25,1.25,2.59,1.25,4.01v.35l-3.26.25c0-1.07-.19-1.83-.57-2.29-.38-.46-.81-.69-1.3-.69-.81,0-1.46.6-1.94,1.81-.48,1.21-.72,2.79-.72,4.74s.64,2.96,1.91,2.96c1.13,0,1.91-.94,2.36-2.83l3.06.52Z"/>
        <path class="cls-3" d="m119.63,33.69l-2.1,16.09h-3.78l2.1-16.09h3.78Zm.75-5.79l-.6,4.57h-3.78l.6-4.57h3.78Z"/>
        <path class="cls-3" d="m126.51,49.78c-.02-.47-.02-.81-.02-1,0-.21.02-.55.07-1.03.03-.28.05-.53.06-.74-.78,2.11-2.13,3.16-4.04,3.16-1.1,0-2.01-.42-2.71-1.25-.7-.83-1.05-1.87-1.05-3.13,0-1.75.61-3.15,1.84-4.21,1.23-1.06,3.45-1.68,6.66-1.87.15-.51.22-.99.22-1.44,0-.59-.15-1.06-.44-1.4-.3-.34-.7-.51-1.2-.51-1.26,0-2.1.81-2.52,2.44l-3.29-.47c.88-3.28,2.91-4.92,6.08-4.92,1.6,0,2.82.43,3.66,1.28.83.85,1.25,1.98,1.25,3.37,0,.51-.12,1.67-.35,3.48l-.54,4.13c-.17,1.33-.26,2.35-.26,3.05,0,.34.02.69.06,1.06h-3.49Zm.56-7.8c-2.96.14-4.44,1.23-4.44,3.28,0,.56.13,1.02.39,1.4.26.37.61.56,1.04.56.71,0,1.34-.44,1.89-1.31.55-.87.93-2.18,1.12-3.93Z"/>
      </g>
      <g>
        <path class="cls-3" d="m36.7,57.47c0,.24-.03.47-.1.67s-.16.38-.28.53-.27.26-.44.34-.38.12-.63.12h-.53v2.02s0,.03,0,.04-.02.02-.03.03-.03.01-.06.02-.06,0-.09,0c-.04,0-.07,0-.09,0s-.05-.01-.06-.02-.03-.02-.03-.03,0-.03,0-.04v-4.94c0-.1.02-.17.06-.2s.08-.06.12-.06h.84c.08,0,.16,0,.24.01s.17.03.28.06.21.09.32.18.2.19.28.31.14.27.18.42.06.33.06.52Zm-.41.04c0-.23-.04-.42-.11-.58s-.16-.28-.26-.36-.21-.13-.32-.15-.21-.03-.31-.03h-.59v2.29h.56c.18,0,.33-.03.45-.09s.22-.14.31-.24.15-.23.19-.37.07-.3.07-.48Z"/>
        <path class="cls-3" d="m45.47,61.07s.02.07.02.1,0,.05-.02.06-.04.02-.06.03-.07,0-.11,0-.08,0-.11,0-.05-.01-.06-.02-.03-.02-.03-.03-.01-.03-.02-.05l-.39-1.41h-1.81l-.38,1.4s-.01.04-.02.05-.02.03-.04.03-.04.02-.06.02-.06,0-.1,0c-.04,0-.08,0-.11,0s-.05-.01-.07-.03-.02-.03-.02-.06,0-.06.02-.1l1.44-5.03s.02-.04.03-.06.03-.03.05-.03.04-.01.07-.02.06,0,.1,0c.04,0,.07,0,.1,0s.05.01.07.02.04.02.05.03.02.03.03.06l1.44,5.03Zm-1.71-4.58h0l-.78,2.84h1.58l-.8-2.84Z"/>
        <path class="cls-3" d="m54.08,61s0,.09-.02.12-.03.06-.04.08-.04.03-.06.04-.04.01-.06.01h-.08s-.08,0-.12-.02-.07-.04-.1-.07-.07-.08-.1-.14-.07-.13-.11-.22l-1.45-3.3c-.07-.16-.14-.33-.22-.5s-.14-.34-.21-.5h0c0,.2,0,.4,0,.61v4.03s0,.03,0,.04-.02.02-.03.03-.03.01-.06.02-.06,0-.09,0c-.04,0-.07,0-.09,0s-.05-.01-.06-.02-.03-.02-.03-.03,0-.03,0-.04v-4.94c0-.1.02-.17.06-.2s.08-.06.12-.06h.16c.05,0,.09,0,.13.02s.06.03.09.06.05.06.08.11.06.11.09.18l1.11,2.53c.07.16.14.31.2.46s.12.29.18.43.12.28.18.41.12.27.17.41h0c0-.23,0-.47,0-.71v-3.79s0-.03,0-.04.02-.03.03-.03.03-.02.06-.02.06,0,.09,0c.03,0,.06,0,.09,0s.05.01.06.02.03.02.03.03.01.03.01.04v4.94Z"/>
        <path class="cls-3" d="m60.58,61.16s0,.03,0,.04-.02.02-.03.03-.03.01-.06.02-.06,0-.09,0c-.04,0-.07,0-.09,0s-.05-.01-.06-.02-.03-.02-.03-.03,0-.03,0-.04v-5.12s0-.03.01-.04.02-.02.04-.03.04-.01.06-.02.05,0,.09,0c.04,0,.07,0,.09,0s.04.01.06.02.03.02.03.03,0,.03,0,.04v5.12Z"/>
        <path class="cls-3" d="m68.78,56.18s0,.07,0,.09-.01.05-.02.07-.02.03-.03.04-.03.01-.04.01h-1.6v2h1.51s.03,0,.04.01.02.02.03.03.02.04.02.07,0,.06,0,.1c0,.04,0,.07,0,.09s-.01.05-.02.07-.02.03-.03.04-.03.01-.04.01h-1.51v2.33s0,.03,0,.04-.02.02-.03.03-.03.01-.06.02-.06,0-.09,0c-.04,0-.07,0-.09,0s-.05-.01-.06-.02-.03-.02-.03-.03,0-.03,0-.04v-4.94c0-.1.02-.17.06-.2s.08-.06.12-.06h1.81s.03,0,.04.01.02.02.03.04.02.04.02.07,0,.06,0,.1Z"/>
        <path class="cls-3" d="m74.98,61.16s0,.03,0,.04-.02.02-.03.03-.03.01-.06.02-.06,0-.09,0c-.04,0-.07,0-.09,0s-.05-.01-.06-.02-.03-.02-.03-.03,0-.03,0-.04v-5.12s0-.03.01-.04.02-.02.04-.03.04-.01.06-.02.05,0,.09,0c.04,0,.07,0,.09,0s.04.01.06.02.03.02.03.03,0,.03,0,.04v5.12Z"/>
        <path class="cls-3" d="m83.79,60.52s0,.06,0,.08,0,.05,0,.07,0,.04-.02.05-.02.04-.04.06-.06.07-.13.13-.15.12-.26.17-.22.11-.36.15-.28.06-.44.06c-.26,0-.49-.06-.7-.17s-.39-.29-.54-.51-.26-.5-.34-.82-.12-.7-.12-1.12.04-.82.13-1.16.2-.63.36-.87.34-.42.55-.55.45-.19.71-.19c.12,0,.24.01.36.04s.22.07.32.11.19.1.26.16.13.11.16.14.05.06.05.08.01.03.02.06,0,.04,0,.07,0,.06,0,.09c0,.04,0,.07,0,.1s0,.05-.02.07-.02.04-.03.05-.02.02-.04.02c-.03,0-.07-.03-.13-.08s-.13-.12-.21-.19-.2-.13-.32-.19-.28-.08-.46-.08c-.19,0-.37.05-.53.15s-.3.25-.42.44-.21.43-.27.71-.1.61-.1.98.03.66.09.93.15.5.26.69.25.33.42.43.35.15.56.15c.17,0,.32-.03.45-.08s.24-.12.33-.19.17-.13.22-.19.1-.08.14-.08c.01,0,.02,0,.03.01s.02.02.02.04,0,.04.01.07,0,.07,0,.11Z"/>
        <path class="cls-3" d="m92.41,61.07s.02.07.02.1,0,.05-.02.06-.04.02-.06.03-.07,0-.11,0-.08,0-.11,0-.05-.01-.06-.02-.03-.02-.03-.03-.01-.03-.02-.05l-.39-1.41h-1.81l-.38,1.4s-.01.04-.02.05-.02.03-.04.03-.04.02-.06.02-.06,0-.1,0c-.04,0-.08,0-.11,0s-.05-.01-.07-.03-.02-.03-.02-.06,0-.06.02-.1l1.44-5.03s.02-.04.03-.06.03-.03.05-.03.04-.01.07-.02.06,0,.1,0c.04,0,.07,0,.1,0s.05.01.07.02.04.02.05.03.02.03.03.06l1.44,5.03Zm-1.71-4.58h0l-.78,2.84h1.58l-.8-2.84Z"/>
        <path class="cls-3" d="m100.77,60.52s0,.06,0,.08,0,.05,0,.07,0,.04-.02.05-.02.04-.04.06-.06.07-.13.13-.15.12-.26.17-.22.11-.36.15-.28.06-.44.06c-.26,0-.49-.06-.7-.17s-.39-.29-.54-.51-.26-.5-.34-.82-.12-.7-.12-1.12.04-.82.13-1.16.2-.63.36-.87.34-.42.55-.55.45-.19.71-.19c.12,0,.24.01.36.04s.22.07.32.11.19.1.26.16.13.11.16.14.05.06.05.08.01.03.02.06,0,.04,0,.07,0,.06,0,.09c0,.04,0,.07,0,.1s0,.05-.02.07-.02.04-.03.05-.02.02-.04.02c-.03,0-.07-.03-.13-.08s-.13-.12-.21-.19-.2-.13-.32-.19-.28-.08-.46-.08c-.19,0-.37.05-.53.15s-.3.25-.42.44-.21.43-.27.71-.1.61-.1.98.03.66.09.93.15.5.26.69.25.33.42.43.35.15.56.15c.17,0,.32-.03.45-.08s.24-.12.33-.19.17-.13.22-.19.1-.08.14-.08c.01,0,.02,0,.03.01s.02.02.02.04,0,.04.01.07,0,.07,0,.11Z"/>
        <path class="cls-3" d="m106.85,61.16s0,.03,0,.04-.02.02-.03.03-.03.01-.06.02-.06,0-.09,0c-.04,0-.07,0-.09,0s-.05-.01-.06-.02-.03-.02-.03-.03,0-.03,0-.04v-5.12s0-.03.01-.04.02-.02.04-.03.04-.01.06-.02.05,0,.09,0c.04,0,.07,0,.09,0s.04.01.06.02.03.02.03.03,0,.03,0,.04v5.12Z"/>
        <path class="cls-3" d="m116.28,58.54c0,.42-.04.8-.11,1.15s-.19.63-.34.87-.34.43-.57.56-.5.2-.8.2-.57-.06-.79-.19-.4-.3-.54-.53-.25-.51-.31-.84-.1-.71-.1-1.12.04-.79.11-1.13.19-.63.34-.86.34-.42.57-.55.5-.2.8-.2.56.06.78.18.4.3.54.53.25.51.32.83.1.7.1,1.11Zm-.41.04c0-.31-.02-.61-.07-.88s-.12-.51-.23-.71-.24-.36-.42-.48-.39-.17-.65-.17-.47.06-.64.18-.32.28-.43.49-.19.44-.24.71-.07.56-.07.86c0,.32.02.62.07.9s.12.52.22.72.24.36.42.48.39.17.65.17.48-.06.65-.19.32-.29.43-.5.19-.45.23-.72.07-.56.07-.86Z"/>
        <path class="cls-3" d="m125.09,61s0,.09-.02.12-.03.06-.04.08-.04.03-.06.04-.04.01-.06.01h-.08s-.08,0-.12-.02-.07-.04-.1-.07-.07-.08-.1-.14-.07-.13-.11-.22l-1.45-3.3c-.07-.16-.14-.33-.22-.5s-.14-.34-.21-.5h0c0,.2,0,.4,0,.61v4.03s0,.03,0,.04-.02.02-.03.03-.03.01-.06.02-.06,0-.09,0c-.04,0-.07,0-.09,0s-.05-.01-.06-.02-.03-.02-.03-.03,0-.03,0-.04v-4.94c0-.1.02-.17.06-.2s.08-.06.12-.06h.16c.05,0,.09,0,.13.02s.06.03.09.06.05.06.08.11.06.11.09.18l1.11,2.53c.07.16.14.31.2.46s.12.29.18.43.12.28.18.41.12.27.17.41h0c0-.23,0-.47,0-.71v-3.79s0-.03,0-.04.02-.03.03-.03.03-.02.06-.02.06,0,.09,0c.03,0,.06,0,.09,0s.05.01.06.02.03.02.03.03.01.03.01.04v4.94Z"/>
      </g>
    </g>
  </g>
</svg>