<?xml version="1.0" encoding="UTF-8"?>
<svg id="Capa_2" data-name="Capa 2" xmlns="http://www.w3.org/2000/svg" viewBox="0 0 152 80.61">
  <defs>
    <style>
      .cls-1 {
        fill: #f2ff95;
      }

      .cls-2 {
        stroke-width: 2px;
      }

      .cls-2, .cls-3 {
        fill: none;
        stroke: #f2ff95;
        stroke-miterlimit: 10;
      }
    </style>
  </defs>
  <g id="Capa_1-2" data-name="Capa 1">
    <g>
      <ellipse class="cls-2" cx="76" cy="40.3" rx="75" ry="39.3"/>
      <line class="cls-3" x1="14.86" y1="49.15" x2="55.1" y2="49.15"/>
      <line class="cls-3" x1="97.72" y1="49.15" x2="137.55" y2="49.15"/>
      <g>
        <path class="cls-1" d="m33.77,26.56l-2.28,16.45h6.63l-.53,3.85h-10.5l2.81-20.3h3.87Z"/>
        <path class="cls-1" d="m45.22,46.86c-.02-.45-.02-.76-.02-.94,0-.2.02-.52.07-.97.03-.27.05-.5.06-.7-.78,1.98-2.13,2.97-4.04,2.97-1.1,0-2.01-.39-2.71-1.17-.7-.78-1.05-1.76-1.05-2.94,0-1.64.61-2.96,1.84-3.96,1.23-1,3.45-1.58,6.66-1.76.15-.48.22-.93.22-1.35,0-.56-.15-.99-.44-1.32-.3-.32-.7-.48-1.2-.48-1.26,0-2.1.76-2.52,2.29l-3.29-.45c.88-3.08,2.91-4.63,6.08-4.63,1.6,0,2.82.4,3.66,1.2.83.8,1.25,1.86,1.25,3.17,0,.48-.12,1.57-.35,3.27l-.54,3.88c-.17,1.25-.26,2.21-.26,2.87,0,.32.02.65.06,1h-3.49Zm.56-7.33c-2.96.13-4.44,1.16-4.44,3.08,0,.52.13.96.39,1.31.26.35.61.53,1.04.53.71,0,1.34-.41,1.89-1.23.55-.82.93-2.05,1.12-3.69Z"/>
        <path class="cls-1" d="m73.82,26.56l-.53,3.85h-7.54l-.63,4.54h6.4l-.53,3.85h-6.26l-1.12,8.06h-4.03l2.81-20.3h11.43Z"/>
        <path class="cls-1" d="m79.28,35.9c-.68,0-1.23.12-1.67.36-.44.24-.84.68-1.2,1.32-.37.64-.63,1.36-.8,2.15-.17.79-.37,2.08-.6,3.85l-.45,3.27h-3.78l2.1-15.13h3.5l-.47,3.48c.37-1.03.74-1.82,1.11-2.36.37-.54.75-.9,1.14-1.07.39-.17.89-.26,1.51-.26l-.38,4.37Z"/>
        <path class="cls-1" d="m85.61,46.86c-.02-.45-.02-.76-.02-.94,0-.2.02-.52.07-.97.03-.27.05-.5.06-.7-.78,1.98-2.13,2.97-4.04,2.97-1.1,0-2.01-.39-2.71-1.17-.7-.78-1.05-1.76-1.05-2.94,0-1.64.61-2.96,1.84-3.96,1.23-1,3.45-1.58,6.66-1.76.15-.48.22-.93.22-1.35,0-.56-.15-.99-.44-1.32-.3-.32-.7-.48-1.2-.48-1.26,0-2.1.76-2.52,2.29l-3.29-.45c.88-3.08,2.91-4.63,6.08-4.63,1.6,0,2.82.4,3.66,1.2.83.8,1.25,1.86,1.25,3.17,0,.48-.12,1.57-.35,3.27l-.54,3.88c-.17,1.25-.26,2.21-.26,2.87,0,.32.02.65.06,1h-3.49Zm.56-7.33c-2.96.13-4.44,1.16-4.44,3.08,0,.52.13.96.39,1.31.26.35.61.53,1.04.53.71,0,1.34-.41,1.89-1.23.55-.82.93-2.05,1.12-3.69Z"/>
        <path class="cls-1" d="m95.75,31.74l-.4,2.87c.91-2.09,2.17-3.14,3.77-3.14.99,0,1.79.38,2.42,1.15s.93,1.74.93,2.92c0,.48-.09,1.41-.28,2.81l-1.19,8.51h-3.62l1.22-8.83c.12-.88.19-1.44.19-1.67,0-1.06-.43-1.59-1.3-1.59-.45,0-.87.18-1.25.54-.38.36-.65.83-.83,1.4s-.34,1.46-.51,2.67l-1.04,7.48h-3.63l2.1-15.13h3.4Z"/>
        <path class="cls-1" d="m114.07,41.53c-1.06,3.77-2.99,5.65-5.79,5.65-1.74,0-3.09-.66-4.04-1.97-.95-1.31-1.43-2.98-1.43-5.01,0-2.27.59-4.3,1.78-6.08,1.18-1.78,2.76-2.67,4.74-2.67,1.79,0,3.11.59,3.94,1.76.84,1.17,1.25,2.43,1.25,3.77v.33l-3.26.24c0-1-.19-1.72-.57-2.15-.38-.43-.81-.65-1.3-.65-.81,0-1.46.57-1.94,1.7-.48,1.14-.72,2.62-.72,4.45s.64,2.78,1.91,2.78c1.13,0,1.91-.89,2.36-2.66l3.06.49Z"/>
        <path class="cls-1" d="m119.63,31.74l-2.1,15.13h-3.78l2.1-15.13h3.78Zm.75-5.44l-.6,4.3h-3.78l.6-4.3h3.78Z"/>
        <path class="cls-1" d="m126.51,46.86c-.02-.45-.02-.76-.02-.94,0-.2.02-.52.07-.97.03-.27.05-.5.06-.7-.78,1.98-2.13,2.97-4.04,2.97-1.1,0-2.01-.39-2.71-1.17-.7-.78-1.05-1.76-1.05-2.94,0-1.64.61-2.96,1.84-3.96,1.23-1,3.45-1.58,6.66-1.76.15-.48.22-.93.22-1.35,0-.56-.15-.99-.44-1.32-.3-.32-.7-.48-1.2-.48-1.26,0-2.1.76-2.52,2.29l-3.29-.45c.88-3.08,2.91-4.63,6.08-4.63,1.6,0,2.82.4,3.66,1.2.83.8,1.25,1.86,1.25,3.17,0,.48-.12,1.57-.35,3.27l-.54,3.88c-.17,1.25-.26,2.21-.26,2.87,0,.32.02.65.06,1h-3.49Zm.56-7.33c-2.96.13-4.44,1.16-4.44,3.08,0,.52.13.96.39,1.31.26.35.61.53,1.04.53.71,0,1.34-.41,1.89-1.23.55-.82.93-2.05,1.12-3.69Z"/>
      </g>
      <g>
        <path class="cls-1" d="m36.7,54.09c0,.23-.03.44-.1.63s-.16.36-.28.5-.27.25-.44.32-.38.12-.63.12h-.53v1.9s0,.03,0,.04-.02.02-.03.03-.03.01-.06.02-.06,0-.09,0c-.04,0-.07,0-.09,0s-.05-.01-.06-.02-.03-.02-.03-.03,0-.03,0-.04v-4.65c0-.09.02-.16.06-.19s.08-.05.12-.05h.84c.08,0,.16,0,.24.01s.17.03.28.06.21.08.32.17.2.18.28.3.14.25.18.4.06.31.06.49Zm-.41.04c0-.21-.04-.4-.11-.55s-.16-.26-.26-.33-.21-.12-.32-.14-.21-.03-.31-.03h-.59v2.16h.56c.18,0,.33-.03.45-.08s.22-.13.31-.23.15-.21.19-.35.07-.29.07-.45Z"/>
        <path class="cls-1" d="m45.47,57.48s.02.07.02.09,0,.04-.02.06-.04.02-.06.02-.07,0-.11,0-.08,0-.11,0-.05,0-.06-.02-.03-.02-.03-.03-.01-.03-.02-.05l-.39-1.32h-1.81l-.38,1.32s-.01.03-.02.05-.02.02-.04.03-.04.02-.06.02-.06,0-.1,0c-.04,0-.08,0-.11,0s-.05-.01-.07-.03-.02-.03-.02-.05,0-.05.02-.09l1.44-4.72s.02-.04.03-.05.03-.02.05-.03.04-.01.07-.02.06,0,.1,0c.04,0,.07,0,.1,0s.05,0,.07.02.04.02.05.03.02.03.03.05l1.44,4.72Zm-1.71-4.31h0l-.78,2.67h1.58l-.8-2.67Z"/>
        <path class="cls-1" d="m54.08,57.41s0,.08-.02.12-.03.06-.04.07-.04.03-.06.04-.04.01-.06.01h-.08s-.08,0-.12-.02-.07-.04-.1-.07-.07-.07-.1-.13-.07-.12-.11-.21l-1.45-3.1c-.07-.15-.14-.31-.22-.47s-.14-.32-.21-.47h0c0,.19,0,.38,0,.57v3.79s0,.03,0,.04-.02.02-.03.03-.03.01-.06.02-.06,0-.09,0c-.04,0-.07,0-.09,0s-.05-.01-.06-.02-.03-.02-.03-.03,0-.03,0-.04v-4.65c0-.09.02-.16.06-.19s.08-.05.12-.05h.16c.05,0,.09,0,.13.02s.06.03.09.05.05.06.08.1.06.1.09.17l1.11,2.38c.07.15.14.29.2.43s.12.27.18.4.12.26.18.39.12.26.17.39h0c0-.21,0-.44,0-.67v-3.56s0-.03,0-.04.02-.02.03-.03.03-.02.06-.02.06,0,.09,0c.03,0,.06,0,.09,0s.05.01.06.02.03.02.03.03.01.03.01.04v4.65Z"/>
        <path class="cls-1" d="m60.58,57.56s0,.03,0,.04-.02.02-.03.03-.03.01-.06.02-.06,0-.09,0c-.04,0-.07,0-.09,0s-.05-.01-.06-.02-.03-.02-.03-.03,0-.03,0-.04v-4.81s0-.03.01-.04.02-.02.04-.03.04-.01.06-.02.05,0,.09,0c.04,0,.07,0,.09,0s.04.01.06.02.03.02.03.03,0,.03,0,.04v4.81Z"/>
        <path class="cls-1" d="m68.78,52.88s0,.06,0,.09-.01.05-.02.06-.02.03-.03.04-.03.01-.04.01h-1.6v1.88h1.51s.03,0,.04,0,.02.02.03.03.02.04.02.06,0,.06,0,.1c0,.03,0,.06,0,.09s-.01.05-.02.06-.02.03-.03.04-.03.01-.04.01h-1.51v2.19s0,.03,0,.04-.02.02-.03.03-.03.01-.06.02-.06,0-.09,0c-.04,0-.07,0-.09,0s-.05-.01-.06-.02-.03-.02-.03-.03,0-.03,0-.04v-4.65c0-.09.02-.16.06-.19s.08-.05.12-.05h1.81s.03,0,.04.01.02.02.03.04.02.04.02.07,0,.06,0,.09Z"/>
        <path class="cls-1" d="m74.98,57.56s0,.03,0,.04-.02.02-.03.03-.03.01-.06.02-.06,0-.09,0c-.04,0-.07,0-.09,0s-.05-.01-.06-.02-.03-.02-.03-.03,0-.03,0-.04v-4.81s0-.03.01-.04.02-.02.04-.03.04-.01.06-.02.05,0,.09,0c.04,0,.07,0,.09,0s.04.01.06.02.03.02.03.03,0,.03,0,.04v4.81Z"/>
        <path class="cls-1" d="m83.79,56.96s0,.05,0,.08,0,.04,0,.06,0,.03-.02.05-.02.04-.04.06-.06.06-.13.12-.15.11-.26.16-.22.1-.36.14-.28.06-.44.06c-.26,0-.49-.05-.7-.16s-.39-.27-.54-.48-.26-.47-.34-.78-.12-.66-.12-1.05.04-.77.13-1.09.2-.59.36-.82.34-.4.55-.51.45-.18.71-.18c.12,0,.24.01.36.04s.22.06.32.11.19.09.26.15.13.1.16.14.05.06.05.07.01.03.02.05,0,.04,0,.07,0,.05,0,.08c0,.04,0,.07,0,.09s0,.05-.02.07-.02.03-.03.04-.02.02-.04.02c-.03,0-.07-.03-.13-.08s-.13-.11-.21-.17-.2-.12-.32-.17-.28-.08-.46-.08c-.19,0-.37.05-.53.14s-.3.23-.42.41-.21.41-.27.67-.1.57-.1.92.03.62.09.88.15.47.26.65.25.31.42.4.35.14.56.14c.17,0,.32-.03.45-.08s.24-.11.33-.17.17-.12.22-.17.1-.08.14-.08c.01,0,.02,0,.03,0s.02.02.02.03,0,.04.01.07,0,.06,0,.1Z"/>
        <path class="cls-1" d="m92.41,57.48s.02.07.02.09,0,.04-.02.06-.04.02-.06.02-.07,0-.11,0-.08,0-.11,0-.05,0-.06-.02-.03-.02-.03-.03-.01-.03-.02-.05l-.39-1.32h-1.81l-.38,1.32s-.01.03-.02.05-.02.02-.04.03-.04.02-.06.02-.06,0-.1,0c-.04,0-.08,0-.11,0s-.05-.01-.07-.03-.02-.03-.02-.05,0-.05.02-.09l1.44-4.72s.02-.04.03-.05.03-.02.05-.03.04-.01.07-.02.06,0,.1,0c.04,0,.07,0,.1,0s.05,0,.07.02.04.02.05.03.02.03.03.05l1.44,4.72Zm-1.71-4.31h0l-.78,2.67h1.58l-.8-2.67Z"/>
        <path class="cls-1" d="m100.77,56.96s0,.05,0,.08,0,.04,0,.06,0,.03-.02.05-.02.04-.04.06-.06.06-.13.12-.15.11-.26.16-.22.1-.36.14-.28.06-.44.06c-.26,0-.49-.05-.7-.16s-.39-.27-.54-.48-.26-.47-.34-.78-.12-.66-.12-1.05.04-.77.13-1.09.2-.59.36-.82.34-.4.55-.51.45-.18.71-.18c.12,0,.24.01.36.04s.22.06.32.11.19.09.26.15.13.1.16.14.05.06.05.07.01.03.02.05,0,.04,0,.07,0,.05,0,.08c0,.04,0,.07,0,.09s0,.05-.02.07-.02.03-.03.04-.02.02-.04.02c-.03,0-.07-.03-.13-.08s-.13-.11-.21-.17-.2-.12-.32-.17-.28-.08-.46-.08c-.19,0-.37.05-.53.14s-.3.23-.42.41-.21.41-.27.67-.1.57-.1.92.03.62.09.88.15.47.26.65.25.31.42.4.35.14.56.14c.17,0,.32-.03.45-.08s.24-.11.33-.17.17-.12.22-.17.1-.08.14-.08c.01,0,.02,0,.03,0s.02.02.02.03,0,.04.01.07,0,.06,0,.1Z"/>
        <path class="cls-1" d="m106.85,57.56s0,.03,0,.04-.02.02-.03.03-.03.01-.06.02-.06,0-.09,0c-.04,0-.07,0-.09,0s-.05-.01-.06-.02-.03-.02-.03-.03,0-.03,0-.04v-4.81s0-.03.01-.04.02-.02.04-.03.04-.01.06-.02.05,0,.09,0c.04,0,.07,0,.09,0s.04.01.06.02.03.02.03.03,0,.03,0,.04v4.81Z"/>
        <path class="cls-1" d="m116.28,55.09c0,.4-.04.76-.11,1.08s-.19.59-.34.82-.34.4-.57.52-.5.18-.8.18-.57-.06-.79-.17-.4-.28-.54-.5-.25-.48-.31-.79-.1-.66-.1-1.06.04-.74.11-1.06.19-.59.34-.81.34-.4.57-.52.5-.18.8-.18.56.06.78.17.4.28.54.5.25.48.32.78.1.65.1,1.04Zm-.41.04c0-.29-.02-.57-.07-.83s-.12-.48-.23-.67-.24-.34-.42-.45-.39-.16-.65-.16-.47.06-.64.17-.32.27-.43.46-.19.42-.24.67-.07.53-.07.81c0,.3.02.58.07.84s.12.49.22.68.24.34.42.45.39.16.65.16.48-.06.65-.17.32-.27.43-.47.19-.42.23-.68.07-.53.07-.81Z"/>
        <path class="cls-1" d="m125.09,57.41s0,.08-.02.12-.03.06-.04.07-.04.03-.06.04-.04.01-.06.01h-.08s-.08,0-.12-.02-.07-.04-.1-.07-.07-.07-.1-.13-.07-.12-.11-.21l-1.45-3.1c-.07-.15-.14-.31-.22-.47s-.14-.32-.21-.47h0c0,.19,0,.38,0,.57v3.79s0,.03,0,.04-.02.02-.03.03-.03.01-.06.02-.06,0-.09,0c-.04,0-.07,0-.09,0s-.05-.01-.06-.02-.03-.02-.03-.03,0-.03,0-.04v-4.65c0-.09.02-.16.06-.19s.08-.05.12-.05h.16c.05,0,.09,0,.13.02s.06.03.09.05.05.06.08.1.06.1.09.17l1.11,2.38c.07.15.14.29.2.43s.12.27.18.4.12.26.18.39.12.26.17.39h0c0-.21,0-.44,0-.67v-3.56s0-.03,0-.04.02-.02.03-.03.03-.02.06-.02.06,0,.09,0c.03,0,.06,0,.09,0s.05.01.06.02.03.02.03.03.01.03.01.04v4.65Z"/>
      </g>
    </g>
  </g>
</svg>