<?xml version="1.0" encoding="UTF-8"?>
<svg id="Capa_2" data-name="Capa 2" xmlns="http://www.w3.org/2000/svg" viewBox="0 0 150 198.64">
  <defs>
    <style>
      .cls-1 {
        fill: #f2ff95;
      }
    </style>
  </defs>
  <g id="Capa_1-2" data-name="Capa 1">
    <g>
      <path class="cls-1" d="m132.03,0c.95.96,2.33,1.01,3.43,1.67,3.26,1.96,4.78,5.09,5.02,8.61.28,4,.56,8.1-.43,12.06-.85,3.4-3.26,5.61-6.32,7.01-.85.39-.96.72-.96,1.45.02,2.07.07,4.13-.02,6.2-.05,1.11.3,1.87,1.09,2.68,2.87,2.94,6.11,5.54,8.51,8.9,2.11,2.96,1.23,6.51-1.94,8.47-.21.13-.39.32-.5.41,4.42,6.17,8.18,12.55,9.24,20.27.5,3.68.83,7.33.83,11.03,0,17.69-.02,35.38.02,53.08,0,2.17-.9,3.6-2.85,4.43-2.19-.52-3-1.7-3-4.41,0-18.02,0-36.04,0-54.06,0-3.27-.53-6.48-.84-9.71-.11-1.16-.99-2.09-1.03-3.04-.11-2.69-1.41-4.91-2.43-7.21-1.42-3.22-4.06-5.65-6.03-8.52-1.44-2.1-3.37-3.1-5.84-2.67-3.62.63-7.21,1.43-10.81,2.17-2.16.44-4.51,1.38-6.48,1.1-4.17-.59-8.35-1.44-12.48-2.35-2.11-.47-4.22-1.29-6.39-.89-4.3.79-8.54,1.89-12.85,2.55-1.57.24-3.12,1.04-4.65.81-3.42-.52-6.8-1.36-10.2-2.07-2.6-.54-5.32-1.77-7.83-1.23-4.88,1.05-9.86,1.52-14.69,2.79-1.14.3-2.32.78-3.55.53-4.95-1-9.88-2.07-14.83-3.02-1.77-.34-3.85-.99-5.29.35-1.94,1.79-3.72,3.83-5.02,6.2-1.9,2.16-3.27,4.62-4.34,7.29-1.21,3-2.41,6.03-2.55,9.27-.21,4.9-.2,9.81-.11,14.71.04,2.4-.55,4.16-3.03,4.88-1.84-.29-2.81-1.38-2.82-3.23-.02-4.13.02-8.26,0-12.39-.05-9.57,3.18-17.95,9.06-25.39.6-.76.63-1.14-.25-1.77-3.27-2.35-3.55-7.08-.35-10.07,2.64-2.46,5.1-5.12,7.7-7.63.76-.73,1.13-1.47,1.02-2.51-.08-.77-.06-1.55,0-2.32.2-2.71.06-4.76-3.11-6.28-3.07-1.47-4.95-4.57-4.73-8.48.18-3.22.05-6.45.05-9.68,0-4.9,3.12-7.74,6.58-9.17.56-.23,1.19-.26,1.57-.82h84.16c1.02.79,1.98,1.62,2.06,3.04-.52,2.19-1.97,2.81-4.12,2.8-25.92-.04-51.84-.03-77.76-.03-.52,0-1.03,0-1.55,0-3.19.06-5.4,2.46-5.19,5.3.22,2.89.05,5.81.08,8.72,0,.61.05,1.17.42,1.79,1.12,1.89,2.65,2.69,4.84,2.69,34.19-.03,68.38-.02,102.58-.02,2.07,0,4.14.01,6.2-.03,3.27-.06,5.36-2.15,5.4-5.41.03-2.26-.02-4.53.01-6.79.06-4.31-1.76-6.24-6.26-6.25-4.46,0-8.92-.06-13.38,0-2.06.03-3.25-.83-3.72-2.79.05-1.43.93-2.31,2.02-3.05h18.62Zm-5.1,36.41c0-1.9,0-3.8,0-5.71.05-.3,0-.53-.38-.51-.64-.02-1.29-.06-1.93-.06-32.31-.01-64.62-.02-96.93-.03-4.65,0-4.54,0-4.7,4.73-.06,1.83.58,2.05,2.17,2.05,16.67-.06,33.34-.03,50.01-.04,17.12,0,34.25-.04,51.37-.05.3.05.43-.08.38-.38ZM12.04,51.94c.13.22.27.44.4.66.71-1.1,1.73-.53,2.65-.88,3.75-1.42,7.72-.89,11.47-.34,1.99.29,4.04,1.22,6.14,1.52,2.31.33,4.55,1.37,6.93.99,3.17-.51,6.31-1.21,9.48-1.76,2.92-.51,5.78-1.63,8.79-1.28,2.24.26,4.43.95,6.66,1.31,3.86.63,7.63,1.86,11.59,1.74,3.08-.09,5.91-1.39,8.94-1.86,4.69-.74,9.19-1.53,13.99-.2,3.59.99,7.3,1.93,11.11,2.04,4.42.13,8.56-1.48,12.86-2.09,2.5-.36,4.93-1.33,7.5-.93,1.86.29,3.69.79,5.55,1.07.41.06.89.91,1.27.11.31-.66-.34-1.03-.74-1.43-2.2-2.19-4.46-4.31-6.57-6.58-.97-1.04-1.96-1.39-3.36-1.39-33.08.03-66.15.11-99.23-.1-4.5-.03-7.9.88-10.64,4.5-1.37,1.81-3.19,3.28-4.8,4.9Z"/>
      <path class="cls-1" d="m2.89,107.38c2.27.48,2.98,1.24,2.98,3.49.02,20.15.26,40.3-.09,60.45-.18,10.51,7.46,19.97,18.15,21.42,1.08.15,2.19.03,3.29.03,31.32,0,62.64.04,93.96-.08,2.03,0,4.18.44,6.19-.37.32-.02.65.02.95-.07,4.63-1.33,8.58-3.77,11.56-7.58,2.66-3.41,4.07-7.37,4.19-11.68.15-5.15.04-10.31.08-15.47.02-2.44.83-3.38,3-3.61,2.04.49,2.86,1.81,2.84,3.87-.05,4.65.06,9.31-.04,13.96-.07,3.47-.47,6.93-2.04,10.1-1.75,3.53-3.56,6.98-6.63,9.71-3.12,2.77-6.59,4.83-10.5,6.08-2.9.93-5.99.95-9.03.95-31.27,0-62.55-.07-93.82.06-6.59.03-12.59-1.37-17.71-5.52-4.97-4.03-8.54-9-9.75-15.52-.45-2.45-.5-4.83-.49-7.3.09-19.71.04-39.42.05-59.13,0-3.01.44-3.57,2.83-3.81Z"/>
      <path class="cls-1" d="m126.93,30.7c-.12-.17-.25-.34-.38-.51.38-.02.43.21.38.51Z"/>
      <path class="cls-1" d="m126.55,36.79c.13-.13.25-.25.38-.38.05.3-.08.43-.38.38Z"/>
      <path class="cls-1" d="m73.24,175.04c-14.8,0-29.59-.06-44.39.04-3.79.03-6.92-1.11-9.34-3.95-1.36-1.59-2.29-3.49-2.29-5.7,0-23.71.12-47.43-.05-71.14-.04-5.91,4.55-11.28,11.37-11.26,10.08.02,20.16,0,30.24,0,20.09,0,40.19-.03,60.28.04,2.89.01,5.88.11,8.51,1.6,3.65,2.06,5.12,5.6,5.14,9.44.13,23,.13,46.01.03,69.01-.03,7.15-3.43,10.76-10.32,12.11-1.09.21-2.29-.19-3.44-.19-15.25-.02-30.5-.01-45.75-.01Zm1.19-5.79h0c15.25-.01,30.5,0,45.75-.02,1.14,0,2.26-.04,3.4-.39,3.42-1.03,3.32-3.98,3.33-6.52.1-22.36.07-44.72.02-67.09,0-1.79-.15-3.64-1.78-4.99-1.43-1.19-3.06-1.39-4.78-1.39-20.87,0-41.75,0-62.62,0-9.5,0-19-.04-28.5.02-2.51.02-4.97.35-5.97,3.33-.37,1.1-.2,2.15-.2,3.22-.03,23.01,0,46.02-.07,69.03,0,2.34,2.35,4.81,4.51,4.81,15.64-.01,31.28,0,46.92,0Z"/>
      <path class="cls-1" d="m48.99,142.12c.38-10.43,3.05-20.15,9.61-28.43,4.6-5.81,10.79-8.1,18.19-6.68,1.18.23,2.09.16,2.51-1.34,1.08-3.83,4.09-5.96,7.38-7.72.81-.44,1.86-.44,2.75.08,3.23,1.87,6.06,4.15,7.27,7.85.33,1.01.8,1.31,1.76,1.62,3.79,1.26,6.23,4.17,7.81,7.6.92,1.99-.79,3.75-2.09,5.18-1.86,2.06-3.72,4.22-6.76,4.67-.42.06-.74.39-.53,1.14,1.99,7.4-.4,13.75-5.76,18.67-3.35,3.07-7.5,5.35-11.92,6.94-3.76,1.36-7.58,2.67-11.54,2.96-4.47.33-9.02,1.27-13.49-.6-3.23-1.35-4.06-3.26-4.77-6.4-.42-1.83-.44-3.67-.44-5.54Zm41.86-7.16c1.12-1.93,1.17-4.12.76-6.13-1.5-7.37-5.83-12.59-12.82-15.37-4.41-1.76-9.07-1.77-12.88,1.15-3.88,2.96-6.26,7.28-7.92,11.89-.66,1.83-.81,3.86-1.48,5.61-.8,2.09-1.23,4.19-1.59,6.35-.03,2.45-.04,4.9-.09,7.35-.03,1.64.7,2.89,2.29,3.04,3.67.34,7.35.51,11.03-.14,4.13-.73,8.14-1.88,11.88-3.73,4.56-2.25,8.74-5.04,10.83-10.02Zm-3.59-31.01c-.38.47-1.06,1.24-1.66,2.06-1.38,1.88-1.11,3.64.72,4.93,2.34,1.65,2.41,1.63,4.24-1.01.11-.16.26-.29.35-.45.86-1.49-1.35-5.45-3.65-5.52Zm7.5,15.2c.98-.06,1.56-.02,2.11-.15,1.02-.24,3.31-2.54,3.04-3.04-.72-1.39-1.81-2.52-3.3-3.02-1.29-.43-1.42,1.02-2.09,1.6-.34.3-.69.61-.93.98-.33.51-1.43.64-.85,1.61.58.97,1.27,1.83,2.02,2.02Z"/>
      <path class="cls-1" d="m114.19,144.22c1.03,0,2.07-.09,3.09.02,1.5.16,2.55.84,2.74,2.56.21,1.88-.78,2.95-2.37,3.11-2.36.24-4.77.16-7.15.02-1.48-.09-2.77-1.72-2.51-3.01.31-1.51,1.08-2.71,2.89-2.69,1.1,0,2.19,0,3.29,0,0,0,0,0,0-.01Z"/>
      <path class="cls-1" d="m35.31,162.51c-.97,0-1.93.02-2.9,0-1.46-.04-2.71-1.31-2.77-2.78-.07-1.47,1.08-2.91,2.59-2.97,2.25-.1,4.52-.18,6.76.02,1.53.13,2.7.99,2.7,2.86,0,1.87-1.19,2.61-2.71,2.85-1.19.19-2.44.04-3.67.04,0,0,0,0,0-.01Z"/>
      <path class="cls-1" d="m114.1,162.52c-1.03,0-2.06.03-3.09,0-1.79-.07-3.07-1.35-3.03-2.97.04-1.55,1.27-2.76,2.96-2.81,2-.05,3.99-.06,5.99,0,1.98.05,3.12,1.25,3.07,3.08-.05,1.64-1.29,2.7-3.2,2.73-.9.01-1.8,0-2.71,0h0Z"/>
      <path class="cls-1" d="m35.77,144.22c1.03,0,2.07-.07,3.09.02,1.61.14,2.71.89,2.81,2.68.09,1.77-.83,2.9-2.47,3.04-2.3.19-4.64.13-6.95,0-1.43-.08-2.78-1.69-2.58-2.94.25-1.55,1.02-2.73,2.81-2.76,1.1-.02,2.19,0,3.29,0,0,0,0-.01,0-.02Z"/>
      <path class="cls-1" d="m66.87,140.85c-.77-.12-1.55-.23-2.32-.35-2.11-2-2.16-3.21-.07-5.23,1.01-.98,1.72-2.42,3.55-2.26,1.21.1,2.25.22,2.83,1.49.58,1.27.34,2.41-.53,3.36-1.03,1.13-2.04,2.31-3.46,3Z"/>
      <path class="cls-1" d="m72.05,119.04c1.25-.1,2.21.37,2.73,1.47.53,1.12.36,2.27-.42,3.23-.65.79-1.42,1.49-2.16,2.21-1.59,1.55-2.57,1.66-3.92.47-1.78-1.56-1.8-2.38-.32-4.36,1.08-1.44,2.21-2.73,4.09-3.02Z"/>
      <path class="cls-1" d="m82.45,129.14c1.19-.19,1.96.7,2.48,1.75.5,1.02.1,2-.67,2.8-.81.83-1.6,1.68-2.47,2.45-1.23,1.08-2.54,1.12-3.78,0-1.2-1.09-1.52-2.31-.39-3.68,1.25-1.51,2.25-3.36,4.83-3.31Z"/>
    </g>
  </g>
</svg>