<?xml version="1.0" encoding="UTF-8"?>
<svg id="Capa_2" data-name="Capa 2" xmlns="http://www.w3.org/2000/svg" viewBox="0 0 150 150">
  <defs>
    <style>
      .cls-1 {
        fill: #f2ff95;
      }
    </style>
  </defs>
  <g id="Capa_1-2" data-name="Capa 1">
    <g>
      <path class="cls-1" d="m135.3.3c-.47-.09-.94-.2-1.41-.3h-6.45c-.18.07-.34.18-.53.22-3.39.66-6.86,1.07-10.17,2.02-14.4,4.1-27.11,11.57-39.26,20.11-1.55,1.09-1.6,2.88-.26,4.32.38.41.86.74,1.38,1.18-1.67,1.24-3.39,2.3-4.83,3.65-2.04,1.91-4.09,2.57-6.7,1.21-1.11-.58-2.4-.62-3.44.32-5.34,4.87-10.68,9.73-15.96,14.65-1.27,1.19-1.15,2.78.11,4.01.48.46,1.06.82,1.63,1.25-1.32,1.4-2.77,2.67-3.89,4.19-1.46,2-3.03,2.7-5.4,1.6-1.26-.58-2.65-.38-3.6.8-4.23,5.24-8.46,10.48-12.63,15.76-1.04,1.32-.76,2.68.56,3.72.64.51,1.38.89,2.06,1.32-.01.08,0,.13-.03.16-.96,1.47-1.94,2.93-2.89,4.4q-1.44,2.22-4.03,1.64c-2.07-.46-3.24-.15-4.12,1.3-5.89,9.65-11,19.66-13.75,30.71-.73,2.92-1.15,5.92-1.71,8.88v6.15c.29,1.46.42,2.98.91,4.38.73,2.09,1.54,4.18,2.6,6.13,1.76,3.25,4.61,5.14,8.22,5.9h4.39c.12-.08.23-.18.36-.23,3.6-1.17,7.34-2.03,10.79-3.56,9.24-4.11,17.46-9.92,25.46-16.03,22.59-17.25,42.83-37.01,61.56-58.34,8.8-10.02,17.11-20.43,24.39-31.63,1.02-1.57.83-2.88-.53-3.8-1.01-.68-2.34-.2-3.3,1.21-1.74,2.53-3.43,5.11-5.22,7.6-10.71,14.89-22.84,28.57-35.6,41.71-4.08,4.2-8.22,8.35-12.5,12.33-6.26,5.81-12.57,11.57-19.04,17.14-8.81,7.59-18.03,14.66-28,20.69-5.56,3.36-11.23,6.53-17.69,7.9-3.56.75-7,.8-9.13-2.88-.9-1.55-1.73-3.18-2.24-4.89-1.47-4.95-.98-9.96.06-14.91,2.31-10.96,7.17-20.88,12.88-30.41.22-.36,1.05-.61,1.52-.52,2.95.61,5.87,1.41,8.83,1.97.81.15,2.16.03,2.51-.49.88-1.26,1.83-1.09,3.01-.87,1.34.25,2.71.32,4.05.59.49.1,1.08.45,1.34.86.78,1.25,1.88,1.87,3.29,1.77,1.35-.1,2.74-.22,4.03-.6,3.68-1.07,4.8-4.66,2.3-7.56-1.09-1.27-2.43-2.51-3.9-3.25-4.82-2.42-9.76-4.62-14.66-6.89-.54-.25-1.1-.48-1.91-.83,3.33-4.08,6.5-7.91,9.61-11.79.67-.84,1.29-1,2.37-.77,7.41,1.61,14.82,3.27,22.29,4.58,2.58.45,5.39.28,7.99-.18,4.23-.75,5.5-4.77,2.64-7.93-1.16-1.28-2.58-2.46-4.1-3.25-4.02-2.08-8.15-3.95-12.25-5.85-1.43-.66-2.93-1.17-4.45-1.76.17-.29.22-.44.32-.53,4.07-3.72,8.14-7.45,12.25-11.12.34-.3,1.07-.37,1.56-.27,5.18,1.11,10.33,2.4,15.54,3.39,3.96.76,7.98,1.35,12.06.77,3.3-.47,5.24-2.23,5.15-4.9-.07-2.24-1.46-3.77-3.14-4.85-2.86-1.84-5.87-3.46-8.87-5.06-1.57-.84-3.25-1.46-5.02-2.24.42-.33.66-.56.94-.74,7.87-5.29,16.01-10.1,24.81-13.67,8.12-3.3,16.37-6.05,25.36-5.13,3.11.32,6.01,1.2,8.62,2.96,2.02,1.36,3.12,3.25,2.99,5.67-.07,1.45-.28,2.94-.77,4.3-1.15,3.21-2.48,6.35-3.76,9.51-.78,1.93.11,3.36,2.15,3.39,1.15.02,1.72-.73,2.19-1.65,2.21-4.37,3.89-8.92,4.79-13.75v-3.81c-1.87-7.71-8-9.8-14.7-11.13Z"/>
      <path class="cls-1" d="m109.66,18.52c.02-1.34-.93-2.37-2.2-2.39-1.23-.02-2.3,1.04-2.32,2.32-.02,1.26,1.02,2.37,2.24,2.4,1.25.03,2.26-1,2.28-2.32Z"/>
      <path class="cls-1" d="m92.83,23.7c-.03,1.26,1,2.38,2.23,2.41,1.25.04,2.27-.99,2.29-2.31.03-1.34-.92-2.38-2.19-2.4-1.23-.03-2.31,1.03-2.34,2.3Z"/>
      <path class="cls-1" d="m78.02,45.78c.02-1.34-.93-2.37-2.19-2.4-1.23-.03-2.3,1.03-2.33,2.31-.03,1.26,1.01,2.38,2.24,2.41,1.25.03,2.27-.99,2.29-2.31Z"/>
      <path class="cls-1" d="m37.46,74.79c.04,1.27,1.11,2.33,2.34,2.3,1.26-.03,2.21-1.09,2.19-2.41-.03-1.32-1.04-2.34-2.3-2.3-1.23.04-2.27,1.15-2.23,2.41Z"/>
      <path class="cls-1" d="m54.72,84.12c1.26-.02,2.22-1.07,2.2-2.4-.02-1.33-1.02-2.34-2.28-2.32-1.23.03-2.27,1.13-2.24,2.4.03,1.27,1.1,2.34,2.32,2.32Z"/>
      <path class="cls-1" d="m30.42,102.83c-.02,1.27,1.01,2.37,2.25,2.39,1.25.02,2.26-1.01,2.28-2.32.02-1.34-.94-2.37-2.21-2.39-1.23-.02-2.3,1.05-2.32,2.32Z"/>
      <path class="cls-1" d="m105.19,26.68c-1.23.02-2.15.97-2.17,2.28-.03,1.38.88,2.41,2.17,2.43,1.23.02,2.31-1.07,2.31-2.35,0-1.29-1.06-2.37-2.31-2.35Z"/>
      <path class="cls-1" d="m53.89,72.16c.04-1.29-.99-2.4-2.25-2.42-1.23-.02-2.19.92-2.24,2.22-.05,1.39.83,2.43,2.11,2.49,1.23.06,2.33-1,2.38-2.29Z"/>
      <path class="cls-1" d="m64.32,45.61c-1.28.02-2.29,1.08-2.25,2.38.04,1.26.99,2.2,2.24,2.21,1.36.02,2.28-.9,2.28-2.28,0-1.36-.95-2.33-2.28-2.31Z"/>
      <path class="cls-1" d="m77.97,56.64c1.27-.06,2.12-.99,2.1-2.31-.02-1.35-.99-2.31-2.31-2.27-1.28.03-2.27,1.12-2.21,2.41.06,1.32,1.08,2.24,2.42,2.17Z"/>
      <path class="cls-1" d="m21,103.81c1.38.13,2.4-.7,2.52-2.03.12-1.35-.75-2.45-2.03-2.55-1.3-.1-2.37.82-2.48,2.13-.1,1.23.79,2.33,1.99,2.45Z"/>
      <path class="cls-1" d="m17.3,110.66c-1.33.02-2.2.98-2.17,2.38.03,1.36.84,2.19,2.17,2.2,1.33.01,2.32-.96,2.31-2.28,0-1.32-1-2.32-2.31-2.31Z"/>
    </g>
  </g>
</svg>