<?xml version="1.0" encoding="UTF-8"?>
<svg id="Capa_2" data-name="Capa 2" xmlns="http://www.w3.org/2000/svg" viewBox="0 0 150 170.68">
  <defs>
    <style>
      .cls-1 {
        fill: #216966;
      }
    </style>
  </defs>
  <g id="Capa_1-2" data-name="Capa 1">
    <g>
      <path class="cls-1" d="m78.3,0c3.97.74,8.01,1.21,11.88,2.29,11.26,3.14,20.44,9.54,27.72,18.63,5.29,6.6,8.9,14.06,10.68,22.32,3.14,14.6.94,28.38-6.97,41.1-5.63,9.05-11.47,17.96-17.22,26.94-.26.41-.49.85-.85,1.47,1.76.33,3.38.6,4.99.93,9.48,1.92,18.81,4.34,27.41,8.96,4.74,2.55,9.11,5.59,11.85,10.41,3.31,5.82,2.83,11.48-1.03,16.87-3.06,4.27-7.36,7.05-11.94,9.37-9.55,4.85-19.83,7.35-30.33,9.04-15.32,2.47-30.72,2.97-46.17,1.62-13.88-1.21-27.51-3.6-40.37-9.26-5.22-2.3-10.12-5.13-13.85-9.57-5.94-7.08-5.41-15.82,1.23-22.28,4.51-4.39,9.95-7.21,15.72-9.47,7.73-3.02,15.75-4.96,23.92-6.35.42-.07.83-.2,1.36-.32-.32-.56-.54-.99-.8-1.4-5.75-8.98-11.6-17.88-17.22-26.94-7.25-11.69-9.94-24.44-7.53-37.99,3.5-19.64,14.62-33.56,32.68-41.89,5.32-2.45,11-3.77,16.87-4.21.43-.03.85-.17,1.28-.26,2.22,0,4.44,0,6.67,0Zm-3.33,138.74c.42-.62.77-1.1,1.09-1.6,12.01-18.81,23.97-37.64,36.03-56.42,9.49-14.78,10.69-30.2,2.87-45.85-7.21-14.44-19.26-22.86-35.34-24.5-16.98-1.73-30.75,4.71-40.99,18.35-10.81,14.41-11.52,35.19-1.87,50.32,12.39,19.42,24.8,38.82,37.21,58.23.29.45.61.88,1.01,1.47Zm-.05,22.16c6.26-.4,12.53-.67,18.77-1.23,10.87-.98,21.53-3.04,31.71-7.06,4.65-1.84,9.2-3.95,12.62-7.8,2.57-2.89,2.53-5.37,0-8.27-2.39-2.73-5.44-4.56-8.65-6.11-9.82-4.72-20.35-6.83-31.05-8.26-.42-.06-1.08.43-1.36.84-1.26,1.83-2.42,3.72-3.61,5.59-4.59,7.21-9.19,14.41-13.76,21.63-1.31,2.07-3.04,3.19-5.55,2.79-1.81-.29-2.88-1.51-3.8-2.97-5.65-8.9-11.33-17.78-16.97-26.69-.59-.93-1.1-1.43-2.36-1.15-2.32.51-4.72.7-7.06,1.13-8.81,1.63-17.49,3.75-25.34,8.24-2.51,1.43-4.85,3.34-6.88,5.4-2.31,2.35-2.17,4.98,0,7.45,1.09,1.24,2.33,2.39,3.68,3.34,5.24,3.68,11.19,5.82,17.29,7.55,13.83,3.93,28,5.23,42.33,5.56Z"/>
      <path class="cls-1" d="m74.99,80.33c-13.75.01-25.03-11.26-25.02-25.01.01-13.76,11.3-25.01,25.06-24.97,13.69.04,24.89,11.24,24.93,24.93.04,13.75-11.22,25.04-24.97,25.06Zm-.09-39.98c-8.19.07-14.95,6.87-14.92,15.02.03,8.17,6.81,14.94,14.98,14.96,8.21.02,15.11-6.93,15-15.1-.11-8.21-6.93-14.95-15.06-14.88Z"/>
    </g>
  </g>
</svg>