<?xml version="1.0" encoding="UTF-8"?>
<svg id="Capa_2" data-name="Capa 2" xmlns="http://www.w3.org/2000/svg" viewBox="0 0 150 150.69">
  <defs>
    <style>
      .cls-1 {
        fill: #d5f0e9;
      }
    </style>
  </defs>
  <g id="Capa_1-2" data-name="Capa 1">
    <g>
      <path class="cls-1" d="m0,150.69c2.12-7.74,4.16-15.19,6.19-22.64,1.34-4.89,2.71-9.77,3.96-14.68.2-.76.12-1.79-.25-2.47C-9.39,75.54,2.19,31.87,36.61,10.87,51.4,1.85,67.54-1.57,84.76.66c30.79,3.98,55.86,26.38,63.1,56.23,9.89,40.77-15.48,81.65-56.44,90.75-17.61,3.92-34.49,1.53-50.6-6.59-.74-.37-1.82-.49-2.62-.29-12.15,3.12-24.27,6.31-36.4,9.49-.5.13-1,.24-1.8.43Zm17.93-17.76c.46-.09.67-.11.86-.16,6.87-1.8,13.75-3.58,20.6-5.44,1.41-.38,2.52-.23,3.8.53,13.79,8.22,28.66,10.93,44.36,7.71,33.22-6.8,54.55-38.22,48.86-71.6-4.83-28.36-29.32-50.06-57.97-51.27-15.85-.67-30.09,3.87-42.35,13.97-14,11.54-21.65,26.52-22.76,44.63-.82,13.34,2.53,25.71,9.74,36.98.83,1.3,1,2.42.57,3.91-1.96,6.82-3.79,13.68-5.72,20.75Z"/>
      <path class="cls-1" d="m51.09,40.32c3.32-.86,4.86,1.21,5.99,4.17,1.67,4.34,3.51,8.61,5.34,12.88.62,1.44.6,2.73-.33,3.98-1.5,2.01-2.96,4.06-4.54,6-.99,1.22-1.15,2.33-.33,3.7,6.1,10.31,14.64,17.75,25.78,22.18,1.45.58,2.64.36,3.64-.88,1.9-2.36,3.88-4.67,5.69-7.09,1.05-1.41,2.29-1.84,3.81-1.13,5.3,2.48,10.59,4.97,15.81,7.6.63.32,1.19,1.51,1.17,2.29-.13,7.92-2.46,11.74-10.98,15.31-4.82,2.02-9.81,1.52-14.76.14-17.94-5-31.17-16.28-41.76-31.14-3.33-4.67-6.34-9.49-7.6-15.16-1.8-8.09.2-15.1,6.15-20.93,1.89-1.85,4.17-2.25,6.93-1.93Z"/>
    </g>
  </g>
</svg>